<svg width="61" height="61" viewBox="0 0 61 61" fill="none" xmlns="http://www.w3.org/2000/svg">
<circle cx="30.5" cy="30.7158" r="30" fill="#EFF6F1"/>
<path d="M34.1585 23.2631C35.2231 23.2661 36.2431 23.6747 36.9958 24.3996C37.7486 25.1244 38.1729 26.1067 38.1761 27.1318V34.8685C38.1729 35.8936 37.7486 36.8758 36.9958 37.6007C36.2431 38.3256 35.2231 38.7342 34.1585 38.7372H26.1243C25.0598 38.7342 24.0397 38.3256 23.287 37.6007C22.5342 36.8758 22.1099 35.8936 22.1068 34.8685V27.1318C22.1099 26.1067 22.5342 25.1244 23.287 24.3996C24.0397 23.6747 25.0598 23.2661 26.1243 23.2631H34.1585V23.2631ZM34.1585 21.7158H26.1243C23.0309 21.7158 20.5 24.153 20.5 27.1318V34.8685C20.5 37.8473 23.0309 40.2845 26.1243 40.2845H34.1585C37.252 40.2845 39.7828 37.8473 39.7828 34.8685V27.1318C39.7828 24.153 37.252 21.7158 34.1585 21.7158V21.7158Z" fill="#274C5B"/>
<path d="M35.3638 27.1326C35.1254 27.1326 34.8924 27.0645 34.6942 26.937C34.496 26.8095 34.3416 26.6282 34.2504 26.4162C34.1591 26.2041 34.1353 25.9708 34.1818 25.7457C34.2283 25.5205 34.3431 25.3137 34.5116 25.1514C34.6802 24.9891 34.8949 24.8786 35.1287 24.8338C35.3625 24.789 35.6048 24.812 35.825 24.8999C36.0452 24.9877 36.2334 25.1365 36.3659 25.3273C36.4983 25.5182 36.569 25.7425 36.569 25.9721C36.5693 26.1246 36.5384 26.2756 36.4779 26.4166C36.4175 26.5575 36.3287 26.6856 36.2167 26.7934C36.1048 26.9013 35.9718 26.9867 35.8254 27.0449C35.679 27.1031 35.5222 27.1329 35.3638 27.1326V27.1326ZM30.1415 27.906C30.7772 27.906 31.3986 28.0875 31.9271 28.4276C32.4556 28.7677 32.8676 29.251 33.1108 29.8166C33.3541 30.3821 33.4177 31.0044 33.2937 31.6047C33.1697 32.2051 32.8636 32.7565 32.4141 33.1894C31.9646 33.6222 31.392 33.917 30.7685 34.0364C30.1451 34.1558 29.4989 34.0945 28.9116 33.8603C28.3243 33.626 27.8224 33.2293 27.4692 32.7204C27.1161 32.2114 26.9276 31.6131 26.9276 31.0009C26.9285 30.1804 27.2674 29.3937 27.8699 28.8135C28.4724 28.2333 29.2894 27.9069 30.1415 27.906V27.906ZM30.1415 26.3588C29.1881 26.3588 28.256 26.631 27.4633 27.1411C26.6705 27.6512 26.0526 28.3762 25.6878 29.2245C25.3229 30.0727 25.2274 31.0061 25.4134 31.9066C25.5994 32.8071 26.0586 33.6342 26.7328 34.2834C27.4069 34.9327 28.2659 35.3748 29.201 35.5539C30.1362 35.733 31.1054 35.6411 31.9863 35.2897C32.8672 34.9384 33.6201 34.3434 34.1498 33.58C34.6795 32.8166 34.9622 31.9191 34.9622 31.0009C34.9622 29.7698 34.4543 28.589 33.5503 27.7184C32.6462 26.8479 31.42 26.3588 30.1415 26.3588V26.3588Z" fill="#274C5B"/>
</svg>
