<svg width="61" height="61" viewBox="0 0 61 61" fill="none" xmlns="http://www.w3.org/2000/svg">
<circle cx="30.5" cy="30.7158" r="30" fill="#EFF6F1"/>
<path fill-rule="evenodd" clip-rule="evenodd" d="M39.7828 31.0001C39.7828 25.873 35.4657 21.7158 30.1414 21.7158C24.8171 21.7158 20.5 25.873 20.5 31.0001C20.5 35.634 24.0251 39.475 28.6349 40.1721V33.6847H26.1863V31.0001H28.6349V28.9547C28.6349 26.6282 30.0747 25.3421 32.2767 25.3421C33.3317 25.3421 34.4353 25.5236 34.4353 25.5236V27.8087H33.2189C32.0219 27.8087 31.6475 28.524 31.6475 29.2593V31.0001H34.3212L33.8942 33.6847H31.6479V40.173C36.2577 39.4762 39.7828 35.6353 39.7828 31.0001V31.0001Z" fill="#274C5B"/>
</svg>
