<svg width="61" height="61" viewBox="0 0 61 61" fill="none" xmlns="http://www.w3.org/2000/svg">
<circle cx="30.5" cy="30.7158" r="30" fill="#EFF6F1"/>
<path d="M41.1602 24.6742C40.3852 25.011 39.5652 25.2328 38.7261 25.3328C39.6079 24.8164 40.2711 23.9961 40.5912 23.0257C39.7575 23.5132 38.8469 23.8553 37.8984 24.0372C37.4991 23.6186 37.0187 23.2857 36.4866 23.0585C35.9546 22.8313 35.3818 22.7148 34.8033 22.7158C32.4609 22.7158 30.5654 24.5839 30.5654 26.8866C30.5637 27.2069 30.6004 27.5263 30.6747 27.8378C28.9951 27.7591 27.3504 27.3306 25.8458 26.5798C24.3413 25.829 23.01 24.7724 21.9372 23.4777C21.5608 24.1122 21.3618 24.8361 21.3608 25.5738C21.3608 27.02 22.1154 28.2984 23.2547 29.0473C22.5797 29.0313 21.9185 28.8526 21.3273 28.5265V28.5781C21.3273 30.6011 22.7907 32.2841 24.7276 32.6671C24.3634 32.7642 23.988 32.8134 23.6111 32.8135C23.3436 32.814 23.0767 32.788 22.8144 32.736C23.3528 34.3931 24.92 35.5983 26.7764 35.6327C25.2679 36.7953 23.4159 37.4236 21.5115 37.419C21.1734 37.4185 20.8357 37.3984 20.5 37.3587C22.4374 38.5958 24.6895 39.2502 26.9882 39.244C34.7943 39.244 39.0589 32.8867 39.0589 27.373C39.0589 27.1922 39.0541 27.0114 39.0455 26.8349C39.8733 26.2462 40.5893 25.5145 41.1602 24.6742V24.6742Z" fill="#274C5B"/>
</svg>
