<svg width="61" height="61" viewBox="0 0 61 61" fill="none" xmlns="http://www.w3.org/2000/svg">
<circle cx="30.5" cy="30.7158" r="30" fill="#EFF6F1"/>
<path d="M30.2966 20.7158C24.8866 20.7158 20.5 25.1005 20.5 30.5081C20.5 34.5168 22.9142 37.9616 26.3649 39.4785C26.3386 38.7965 26.3605 37.9747 26.5354 37.2315C26.7235 36.4359 27.795 31.8939 27.795 31.8939C27.795 31.8939 27.4801 31.2687 27.4801 30.3463C27.4801 28.895 28.3198 27.8108 29.3695 27.8108C30.2616 27.8108 30.6903 28.4797 30.6903 29.2797C30.6903 30.1758 30.1173 31.5135 29.8243 32.7551C29.5794 33.7955 30.3447 34.6392 31.3725 34.6392C33.2269 34.6392 34.4777 32.2567 34.4777 29.4327C34.4777 27.2863 33.0301 25.6819 30.4016 25.6819C27.432 25.6819 25.5776 27.8983 25.5776 30.3726C25.5776 31.225 25.8313 31.8283 26.2249 32.2917C26.4042 32.5059 26.4305 32.5933 26.3649 32.8381C26.3168 33.0174 26.2118 33.4501 26.1637 33.625C26.0981 33.8742 25.8969 33.9616 25.6738 33.8698C24.3049 33.3102 23.6664 31.8152 23.6664 30.1278C23.6664 27.3475 26.015 24.012 30.6684 24.012C34.4077 24.012 36.87 26.718 36.87 29.6207C36.87 33.4633 34.7314 36.331 31.5824 36.331C30.5241 36.331 29.5313 35.7583 29.1901 35.1113C29.1901 35.1113 28.6216 37.367 28.4991 37.8042C28.2936 38.5605 27.8868 39.3124 27.5151 39.9025C28.4169 40.1684 29.3521 40.3039 30.2923 40.3047C35.7023 40.3047 40.0889 35.9201 40.0889 30.5125C40.0889 25.1049 35.7067 20.7158 30.2966 20.7158Z" fill="#274C5B"/>
</svg>
