<svg width="1920" height="223" viewBox="0 0 1920 223" fill="none" xmlns="http://www.w3.org/2000/svg">
<mask id="mask0_2_10413" style="mask-type:alpha" maskUnits="userSpaceOnUse" x="0" y="0" width="1920" height="223">
<rect width="1920" height="223" fill="#E3F1E9"/>
</mask>
<g mask="url(#mask0_2_10413)">
<path d="M792.647 81.1939C784.45 77.0779 773.774 75.674 764.788 77.4304C758.601 78.6444 750.217 82.32 750.705 89.9434C751.14 96.6214 758.476 100.513 764.362 101.325C770.975 102.227 778.252 101.416 784.45 98.8787C787.505 97.6297 790.6 95.782 792.504 92.9821C794.509 90.0438 794.725 86.6495 793.747 83.2919C793.217 81.4656 790.509 82.6233 791.024 84.431C794.506 96.4663 775.17 99.0728 767.323 98.6559C762.276 98.384 755.915 96.6583 753.975 91.3036C751.757 85.2102 759.589 81.5168 764.236 80.5485C773.15 78.6992 783.407 79.8334 791.589 83.9307C793.262 84.7749 794.353 82.0421 792.647 81.1939Z" fill="#DDDDDD"/>
<path d="M791.714 83.3236C785.302 85.9685 778.27 86.558 771.446 87.3744C769.557 87.5937 769.967 90.5288 771.841 90.2909C778.905 89.4371 786.199 88.7626 792.84 86.0286C794.587 85.3223 793.465 82.5843 791.714 83.3236Z" fill="#DDDDDD"/>
<path d="M796.362 104.273C792.451 108.25 788.661 112.343 785.11 116.666C781.049 121.598 776.58 127.116 774.629 133.297C773.942 135.476 773.552 137.96 774.615 140.087C775.786 142.429 778.347 143.417 780.806 143.737C784.667 144.248 788.885 143.764 792.304 141.872C796.226 139.708 799.19 136.2 801.294 132.318C805.789 124.003 807.159 111.645 799.329 104.824C797.906 103.575 796.154 105.958 797.562 107.188C803.682 112.507 802.574 122.331 799.657 128.997C798.048 132.672 795.611 136.127 792.308 138.435C789.335 140.516 785.77 141.148 782.192 140.924C781.028 140.847 779.805 140.696 778.746 140.179C778.08 139.862 777.524 139.34 777.294 138.893C776.546 137.475 776.947 135.58 777.541 133.892C779.44 128.409 783.323 123.556 786.923 119.104C789.057 116.484 791.281 113.941 793.549 111.455C794.439 110.492 795.329 109.528 796.252 108.569C796.654 108.166 797.022 107.759 797.424 107.356C797.77 106.996 798.038 106.727 798.172 106.593C799.478 105.245 797.686 102.911 796.362 104.273Z" fill="#DDDDDD"/>
<path d="M797.352 106.729C795.31 112.833 792.09 118.421 789.335 124.185C788.52 125.895 791.253 126.988 792.068 125.277C794.823 119.514 798.043 113.925 800.085 107.822C800.69 106.035 797.943 104.924 797.352 106.729Z" fill="#DDDDDD"/>
<path d="M765.116 111.276C757.4 111.295 748.869 111.531 742.007 115.513C737.817 117.946 733.364 121.839 731.713 126.532C731.013 128.542 730.943 130.747 732.16 132.574C733.561 134.676 736.102 135.56 738.456 136.053C744.606 137.316 750.817 134.261 755.403 130.384C760.419 126.141 764.782 120.257 766.27 113.75C766.681 111.906 763.756 111.561 763.363 113.391C762.292 118.138 759.186 122.534 755.844 125.977C752.216 129.705 747.454 132.973 742.123 133.37C738.771 133.626 733.022 132.379 734.362 127.899C735.514 123.984 739.302 120.729 742.603 118.571C748.963 114.444 757.409 114.214 764.739 114.198C766.618 114.196 766.994 111.274 765.116 111.276Z" fill="#DDDDDD"/>
<path d="M762.628 112.683C758.287 116.071 753.621 118.965 749.28 122.353C747.796 123.511 749.588 125.845 751.091 124.673C755.432 121.285 760.098 118.391 764.438 115.003C765.941 113.831 764.13 111.511 762.628 112.683Z" fill="#DDDDDD"/>
<path d="M1141.93 118.054C1153.56 135.9 1176.81 152.579 1202.71 147.927C1203.42 147.804 1203.85 147.118 1203.82 146.52C1203.38 140.154 1199.32 134.535 1195.58 129.647C1191.13 123.799 1186.17 118.788 1179.57 114.874C1173.48 111.263 1167.13 109.307 1159.5 108.897C1155.68 108.684 1151.81 108.777 1147.94 108.944C1146.22 109.026 1144.47 109.117 1142.74 109.224C1141.52 109.298 1140.09 109.119 1138.94 109.675C1138.26 110.002 1138.04 110.686 1138.26 111.234C1139.16 113.687 1140.75 115.754 1141.93 118.054C1142.59 119.32 1144.95 118.199 1144.28 116.917C1143.1 114.617 1141.51 112.549 1140.6 110.122C1140.36 110.65 1140.13 111.178 1139.91 111.681C1140.68 111.308 1142.87 111.516 1143.84 111.462C1145.47 111.368 1147.1 111.291 1148.72 111.222C1152.2 111.082 1155.7 111.015 1159.13 111.213C1166.48 111.62 1172.51 113.575 1178.36 117.082C1184.47 120.741 1189.02 125.393 1193.19 130.786C1196.82 135.466 1200.86 140.939 1201.29 147.092C1201.66 146.615 1202.02 146.162 1202.39 145.685C1189.92 147.918 1178.02 144.526 1168.21 139.031C1158.44 133.559 1150.13 125.891 1144.27 116.901C1143.5 115.731 1141.14 116.852 1141.93 118.054Z" fill="#DDDDDD"/>
<path d="M1141.41 112.899C1153.09 117.229 1164 122.845 1174.36 129.101C1178.82 131.796 1183.43 134.262 1187.99 136.829C1192.75 139.517 1197.55 142.442 1200.73 146.708C1201.59 147.857 1203.61 146.227 1202.75 145.077C1199.68 140.978 1195.12 138.034 1190.55 135.41C1185.69 132.611 1180.72 130.007 1175.93 127.114C1165.38 120.751 1154.29 115.104 1142.4 110.692C1140.94 110.155 1139.97 112.384 1141.41 112.899Z" fill="#DDDDDD"/>
<path d="M1195.08 143.617C1182.49 139.608 1169.52 135.741 1159.22 128.209C1158.03 127.338 1156.49 129.332 1157.67 130.203C1168.13 137.843 1181.31 141.782 1194.09 145.839C1195.57 146.311 1196.55 144.097 1195.08 143.617Z" fill="#DDDDDD"/>
<path d="M1185.11 126.571C1179.3 122.192 1172.43 119.398 1165.42 116.71C1163.99 116.154 1163.02 118.383 1164.45 118.923C1171.29 121.554 1177.93 124.301 1183.59 128.556C1184.75 129.462 1186.28 127.452 1185.11 126.571Z" fill="#DDDDDD"/>
<path d="M1158.53 123.588C1156.05 121.719 1153.84 119.557 1151.14 117.912C1150.61 117.576 1149.77 117.805 1149.35 118.342C1148.92 118.888 1149.06 119.596 1149.61 119.922C1152.31 121.568 1154.51 123.729 1157 125.598C1157.5 125.968 1158.4 125.671 1158.78 125.168C1159.22 124.581 1159.02 123.967 1158.53 123.588Z" fill="#DDDDDD"/>
<path d="M1138.3 89.6994C1158.35 99.8641 1188.67 104.107 1210.97 89.5536C1211.61 89.1457 1211.51 88.3623 1211.2 87.9172C1207.54 82.6974 1200.67 79.6406 1194.61 77.0877C1187.91 74.2695 1181.22 72.2138 1173.56 71.5838C1165.87 70.9469 1158.75 71.7198 1151.14 74.4693C1147.23 75.8862 1143.43 77.6261 1139.67 79.4464C1138 80.2564 1136.31 81.0915 1134.65 81.9176C1133.47 82.507 1132.02 82.9537 1131.17 83.9379C1130.84 84.3147 1130.79 85.0311 1131.18 85.3414C1133.32 87.0948 1135.93 88.2109 1138.3 89.6994C1139.56 90.4932 1141.11 88.4991 1139.84 87.7053C1137.66 86.3227 1135.18 85.3077 1133.18 83.7196C1133.17 84.1958 1133.18 84.6469 1133.18 85.1231C1133.72 84.5066 1136.09 83.6964 1137.01 83.2504C1138.58 82.4699 1140.15 81.6893 1141.74 80.9409C1145.14 79.3187 1148.57 77.7768 1152.1 76.5008C1159.37 73.8738 1166.27 73.3086 1173.59 73.9467C1180.89 74.5939 1187.27 76.6556 1193.65 79.3743C1199.35 81.8048 1205.73 84.6792 1209.17 89.5733C1209.25 89.0195 1209.32 88.4908 1209.4 87.9369C1198.67 94.931 1185.65 96.9522 1173.59 96.3913C1161.57 95.8282 1149.88 92.8117 1139.85 87.7214C1138.49 87.0304 1136.95 89.0245 1138.3 89.6994Z" fill="#DDDDDD"/>
<path d="M1134.9 85.6012C1148.56 84.3788 1162.08 84.5916 1175.43 85.6166C1180.93 86.0454 1186.48 86.1515 1192 86.4316C1197.55 86.7186 1203.3 87.1848 1208.16 89.3105C1209.54 89.91 1211.09 87.9319 1209.7 87.3164C1200.16 83.1388 1188.28 84.3093 1177.61 83.4527C1163.67 82.316 1149.52 82.0098 1135.25 83.2944C1133.62 83.4452 1133.28 85.752 1134.9 85.6012Z" fill="#DDDDDD"/>
<path d="M1201.43 89.1613C1187.59 90.983 1173.42 93.1082 1160 91.0848C1158.45 90.8465 1157.46 93.0689 1159.03 93.2981C1172.9 95.3985 1187.43 93.2812 1201.75 91.4037C1203.38 91.1866 1203.04 88.9533 1201.43 89.1613Z" fill="#DDDDDD"/>
<path d="M1183.74 79.0395C1176.02 77.7637 1168.14 78.2115 1160.11 78.8465C1158.48 78.9812 1158.14 81.288 1159.77 81.1533C1167.55 80.5381 1175.26 80.0327 1182.77 81.2529C1184.33 81.5072 1185.3 79.2938 1183.74 79.0395Z" fill="#DDDDDD"/>
<path d="M1157.02 87.4887C1153.62 86.9357 1150.35 86.0237 1146.85 85.7544C1146.21 85.7112 1145.49 86.2952 1145.41 86.8902C1145.34 87.5585 1145.81 88.0041 1146.49 88.0703C1147.35 88.1279 1148 88.2123 1148.78 88.3314C1149.61 88.4644 1150.42 88.6226 1151.24 88.7808C1152.84 89.0993 1154.4 89.452 1156.02 89.7202C1156.65 89.8298 1157.43 89.5711 1157.67 88.9193C1157.93 88.3569 1157.71 87.6121 1157.02 87.4887Z" fill="#DDDDDD"/>
</g>
</svg>
