<svg width="57" height="56" viewBox="0 0 57 56" fill="none" xmlns="http://www.w3.org/2000/svg">
<circle cx="28.8955" cy="28" r="28" fill="#274C5B"/>
<path d="M25.6733 39.0001C26.3483 39.0001 26.8955 38.4529 26.8955 37.7779C26.8955 37.1029 26.3483 36.5557 25.6733 36.5557C24.9983 36.5557 24.451 37.1029 24.451 37.7779C24.451 38.4529 24.9983 39.0001 25.6733 39.0001Z" fill="white" stroke="white" stroke-width="1.5" stroke-linecap="round" stroke-linejoin="round"/>
<path d="M34.2288 39.0001C34.9038 39.0001 35.451 38.4529 35.451 37.7779C35.451 37.1029 34.9038 36.5557 34.2288 36.5557C33.5538 36.5557 33.0066 37.1029 33.0066 37.7779C33.0066 38.4529 33.5538 39.0001 34.2288 39.0001Z" fill="white" stroke="white" stroke-width="1.5" stroke-linecap="round" stroke-linejoin="round"/>
<path d="M15.8955 17H19.6774L22.5138 33.0731H37.6414" stroke="white" stroke-width="2" stroke-linecap="round" stroke-linejoin="round"/>
<path d="M22.0066 29.1837L37.2538 29.2907C37.3631 29.2908 37.4691 29.2529 37.5537 29.1837C37.6382 29.1144 37.6962 29.0179 37.7176 28.9107L39.4195 20.4014C39.4332 20.3328 39.4316 20.262 39.4146 20.1941C39.3977 20.1262 39.3658 20.063 39.3215 20.0089C39.2771 19.9548 39.2212 19.9112 39.158 19.8813C39.0947 19.8514 39.0256 19.8359 38.9556 19.8359L20.4628 19.8359" stroke="white" stroke-width="2" stroke-linecap="round" stroke-linejoin="round"/>
</svg>
