<svg width="23" height="22" viewBox="0 0 23 22" fill="none" xmlns="http://www.w3.org/2000/svg">
<path fill-rule="evenodd" clip-rule="evenodd" d="M22.8305 11.3775C22.8305 5.44001 17.8311 0.625732 11.6653 0.625732C5.49944 0.625732 0.5 5.44001 0.5 11.3775C0.5 16.7437 4.58229 21.1918 9.92068 21.9991V14.4863H7.08501V11.3775H9.92068V9.00872C9.92068 6.31455 11.588 4.82514 14.1381 4.82514C15.3598 4.82514 16.6378 5.03538 16.6378 5.03538V7.68155H15.2292C13.843 7.68155 13.4093 8.51001 13.4093 9.36151V11.3775H16.5057L16.0112 14.4863H13.4098V22.0001C18.7482 21.1932 22.8305 16.7452 22.8305 11.3775V11.3775Z" fill="#274C5B"/>
</svg>
