<svg width="23" height="22" viewBox="0 0 23 22" fill="none" xmlns="http://www.w3.org/2000/svg">
<path fill-rule="evenodd" clip-rule="evenodd" d="M22.8305 11.3128C22.8305 5.37531 17.8311 0.561035 11.6653 0.561035C5.49944 0.561035 0.5 5.37531 0.5 11.3128C0.5 16.679 4.58229 21.1271 9.92068 21.9344V14.4216H7.08501V11.3128H9.92068V8.94402C9.92068 6.24985 11.588 4.76045 14.1381 4.76045C15.3598 4.76045 16.6378 4.97068 16.6378 4.97068V7.61685H15.2292C13.843 7.61685 13.4093 8.44531 13.4093 9.29681V11.3128H16.5057L16.0112 14.4216H13.4098V21.9354C18.7482 21.1285 22.8305 16.6805 22.8305 11.3128V11.3128Z" fill="#274C5B"/>
</svg>
