<svg width="23" height="22" viewBox="0 0 23 22" fill="none" xmlns="http://www.w3.org/2000/svg">
<path fill-rule="evenodd" clip-rule="evenodd" d="M22.5746 11.3128C22.5746 5.37531 17.5752 0.561035 11.4094 0.561035C5.24358 0.561035 0.244141 5.37531 0.244141 11.3128C0.244141 16.679 4.32644 21.1271 9.66482 21.9344V14.4216H6.82915V11.3128H9.66482V8.94402C9.66482 6.24985 11.3321 4.76045 13.8822 4.76045C15.1039 4.76045 16.3819 4.97068 16.3819 4.97068V7.61685H14.9733C13.5871 7.61685 13.1535 8.44531 13.1535 9.29681V11.3128H16.2498L15.7554 14.4216H13.154V21.9354C18.4923 21.1285 22.5746 16.6805 22.5746 11.3128V11.3128Z" fill="#274C5B"/>
</svg>
