<svg width="23" height="22" viewBox="0 0 23 22" fill="none" xmlns="http://www.w3.org/2000/svg">
<path fill-rule="evenodd" clip-rule="evenodd" d="M22.8305 11.3773C22.8305 5.43989 17.8311 0.62561 11.6653 0.62561C5.49944 0.62561 0.5 5.43989 0.5 11.3773C0.5 16.7436 4.58229 21.1916 9.92068 21.999V14.4862H7.08501V11.3773H9.92068V9.0086C9.92068 6.31442 11.588 4.82502 14.1381 4.82502C15.3598 4.82502 16.6378 5.03526 16.6378 5.03526V7.68143H15.2292C13.843 7.68143 13.4093 8.50989 13.4093 9.36139V11.3773H16.5057L16.0112 14.4862H13.4098V21.9999C18.7482 21.1931 22.8305 16.745 22.8305 11.3773V11.3773Z" fill="#274C5B"/>
</svg>
