<svg width="23" height="22" viewBox="0 0 23 22" fill="none" xmlns="http://www.w3.org/2000/svg">
<path fill-rule="evenodd" clip-rule="evenodd" d="M22.8305 11.3129C22.8305 5.37543 17.8311 0.561157 11.6653 0.561157C5.49944 0.561157 0.5 5.37543 0.5 11.3129C0.5 16.6791 4.58229 21.1272 9.92068 21.9345V14.4218H7.08501V11.3129H9.92068V8.94414C9.92068 6.24997 11.588 4.76057 14.1381 4.76057C15.3598 4.76057 16.6378 4.9708 16.6378 4.9708V7.61698H15.2292C13.843 7.61698 13.4093 8.44544 13.4093 9.29693V11.3129H16.5057L16.0112 14.4218H13.4098V21.9355C18.7482 21.1286 22.8305 16.6806 22.8305 11.3129V11.3129Z" fill="#274C5B"/>
</svg>
