<svg width="23" height="22" viewBox="0 0 23 22" fill="none" xmlns="http://www.w3.org/2000/svg">
<path fill-rule="evenodd" clip-rule="evenodd" d="M22.5746 11.3129C22.5746 5.37543 17.5752 0.561157 11.4094 0.561157C5.24358 0.561157 0.244141 5.37543 0.244141 11.3129C0.244141 16.6791 4.32644 21.1272 9.66482 21.9345V14.4218H6.82915V11.3129H9.66482V8.94414C9.66482 6.24997 11.3321 4.76057 13.8822 4.76057C15.1039 4.76057 16.3819 4.9708 16.3819 4.9708V7.61698H14.9733C13.5871 7.61698 13.1535 8.44544 13.1535 9.29693V11.3129H16.2498L15.7554 14.4218H13.154V21.9355C18.4923 21.1286 22.5746 16.6806 22.5746 11.3129V11.3129Z" fill="#274C5B"/>
</svg>
