<svg width="23" height="22" viewBox="0 0 23 22" fill="none" xmlns="http://www.w3.org/2000/svg">
<path d="M15.9867 2.28838C17.2195 2.29192 18.4007 2.76508 19.2725 3.60451C20.1442 4.44395 20.6355 5.58145 20.6392 6.76858V15.728C20.6355 16.9152 20.1442 18.0527 19.2725 18.8921C18.4007 19.7315 17.2195 20.2047 15.9867 20.2082H6.68266C5.44987 20.2047 4.26862 19.7315 3.3969 18.8921C2.52518 18.0527 2.03382 16.9152 2.03014 15.728V6.76858C2.03382 5.58145 2.52518 4.44395 3.3969 3.60451C4.26862 2.76508 5.44987 2.29192 6.68266 2.28838H15.9867V2.28838ZM15.9867 0.496582H6.68266C3.10031 0.496582 0.169434 3.31891 0.169434 6.76858V15.728C0.169434 19.1777 3.10031 22 6.68266 22H15.9867C19.5691 22 22.4999 19.1777 22.4999 15.728V6.76858C22.4999 3.31891 19.5691 0.496582 15.9867 0.496582V0.496582Z" fill="#274C5B"/>
<path d="M17.3823 6.76923C17.1062 6.76923 16.8364 6.69041 16.6069 6.54273C16.3774 6.39506 16.1985 6.18516 16.0928 5.93958C15.9872 5.694 15.9596 5.42377 16.0134 5.16307C16.0673 4.90237 16.2002 4.66289 16.3954 4.47494C16.5906 4.28698 16.8392 4.15898 17.11 4.10712C17.3807 4.05527 17.6613 4.08188 17.9164 4.1836C18.1714 4.28532 18.3893 4.45758 18.5427 4.6786C18.6961 4.89961 18.7779 5.15945 18.7779 5.42526C18.7783 5.60186 18.7425 5.7768 18.6725 5.94003C18.6025 6.10326 18.4997 6.25156 18.37 6.37644C18.2403 6.50131 18.0863 6.60029 17.9168 6.6677C17.7473 6.73511 17.5656 6.76961 17.3823 6.76923V6.76923ZM11.3346 7.66489C12.0707 7.66489 12.7903 7.87509 13.4024 8.26891C14.0144 8.66274 14.4915 9.22249 14.7732 9.87739C15.0549 10.5323 15.1286 11.2529 14.985 11.9482C14.8414 12.6434 14.4869 13.282 13.9664 13.7833C13.4459 14.2845 12.7827 14.6259 12.0607 14.7642C11.3387 14.9024 10.5904 14.8315 9.91026 14.5602C9.23017 14.2889 8.64889 13.8296 8.23992 13.2402C7.83095 12.6508 7.61266 11.9578 7.61266 11.249C7.61372 10.2987 8.00619 9.38768 8.70395 8.71576C9.40172 8.04384 10.3478 7.6659 11.3346 7.66489V7.66489ZM11.3346 5.87309C10.2304 5.87309 9.1511 6.18838 8.23304 6.77909C7.31498 7.3698 6.59944 8.20939 6.17691 9.1917C5.75437 10.174 5.64382 11.2549 5.85922 12.2977C6.07463 13.3406 6.60632 14.2984 7.38707 15.0503C8.16781 15.8021 9.16254 16.3141 10.2455 16.5215C11.3284 16.729 12.4509 16.6225 13.471 16.2156C14.491 15.8087 15.3629 15.1197 15.9764 14.2356C16.5898 13.3516 16.9172 12.3122 16.9172 11.249C16.9172 9.82319 16.329 8.45582 15.2821 7.44765C14.2351 6.43948 12.8152 5.87309 11.3346 5.87309V5.87309Z" fill="#274C5B"/>
</svg>
