<svg width="23" height="22" viewBox="0 0 23 22" fill="none" xmlns="http://www.w3.org/2000/svg">
<path d="M15.9872 2.28838C17.22 2.29192 18.4012 2.76508 19.273 3.60451C20.1447 4.44395 20.636 5.58145 20.6397 6.76858V15.728C20.636 16.9152 20.1447 18.0527 19.273 18.8921C18.4012 19.7315 17.22 20.2047 15.9872 20.2082H6.68315C5.45036 20.2047 4.26911 19.7315 3.39739 18.8921C2.52567 18.0527 2.03431 16.9152 2.03063 15.728V6.76858C2.03431 5.58145 2.52567 4.44395 3.39739 3.60451C4.26911 2.76508 5.45036 2.29192 6.68315 2.28838H15.9872V2.28838ZM15.9872 0.496582H6.68315C3.1008 0.496582 0.169922 3.31891 0.169922 6.76858V15.728C0.169922 19.1777 3.1008 22 6.68315 22H15.9872C19.5695 22 22.5004 19.1777 22.5004 15.728V6.76858C22.5004 3.31891 19.5695 0.496582 15.9872 0.496582V0.496582Z" fill="#274C5B"/>
<path d="M17.3832 6.76923C17.1072 6.76923 16.8374 6.69041 16.6078 6.54273C16.3783 6.39506 16.1994 6.18516 16.0938 5.93958C15.9882 5.694 15.9605 5.42377 16.0144 5.16307C16.0682 4.90237 16.2012 4.66289 16.3964 4.47494C16.5915 4.28698 16.8402 4.15898 17.111 4.10712C17.3817 4.05527 17.6623 4.08188 17.9173 4.1836C18.1724 4.28532 18.3903 4.45758 18.5437 4.6786C18.697 4.89961 18.7789 5.15945 18.7789 5.42526C18.7793 5.60186 18.7435 5.7768 18.6735 5.94003C18.6035 6.10326 18.5007 6.25156 18.371 6.37644C18.2413 6.50131 18.0873 6.60029 17.9178 6.6677C17.7483 6.73511 17.5666 6.76961 17.3832 6.76923V6.76923ZM11.3356 7.66489C12.0717 7.66489 12.7913 7.87509 13.4033 8.26891C14.0154 8.66274 14.4925 9.22249 14.7742 9.87739C15.0559 10.5323 15.1296 11.2529 14.986 11.9482C14.8423 12.6434 14.4879 13.282 13.9673 13.7833C13.4468 14.2845 12.7836 14.6259 12.0617 14.7642C11.3397 14.9024 10.5913 14.8315 9.91124 14.5602C9.23115 14.2889 8.64987 13.8296 8.2409 13.2402C7.83193 12.6508 7.61364 11.9578 7.61364 11.249C7.6147 10.2987 8.00716 9.38768 8.70493 8.71576C9.4027 8.04384 10.3488 7.6659 11.3356 7.66489V7.66489ZM11.3356 5.87309C10.2314 5.87309 9.15207 6.18838 8.23402 6.77909C7.31596 7.3698 6.60042 8.20939 6.17788 9.1917C5.75535 10.174 5.64479 11.2549 5.8602 12.2977C6.07561 13.3406 6.6073 14.2984 7.38805 15.0503C8.16879 15.8021 9.16352 16.3141 10.2464 16.5215C11.3294 16.729 12.4518 16.6225 13.4719 16.2156C14.492 15.8087 15.3639 15.1197 15.9773 14.2356C16.5908 13.3516 16.9182 12.3122 16.9182 11.249C16.9182 9.82319 16.33 8.45582 15.2831 7.44765C14.2361 6.43948 12.8162 5.87309 11.3356 5.87309V5.87309Z" fill="#274C5B"/>
</svg>
