<svg width="24" height="22" viewBox="0 0 24 22" fill="none" xmlns="http://www.w3.org/2000/svg">
<path d="M16.7308 2.28838C17.9636 2.29192 19.1449 2.76508 20.0166 3.60451C20.8883 4.44395 21.3797 5.58145 21.3834 6.76858V15.728C21.3797 16.9152 20.8883 18.0527 20.0166 18.8921C19.1449 19.7315 17.9636 20.2047 16.7308 20.2082H7.4268C6.19401 20.2047 5.01276 19.7315 4.14104 18.8921C3.26932 18.0527 2.77796 16.9152 2.77428 15.728V6.76858C2.77796 5.58145 3.26932 4.44395 4.14104 3.60451C5.01276 2.76508 6.19401 2.29192 7.4268 2.28838H16.7308V2.28838ZM16.7308 0.496582H7.4268C3.84445 0.496582 0.913574 3.31891 0.913574 6.76858V15.728C0.913574 19.1777 3.84445 22 7.4268 22H16.7308C20.3132 22 23.2441 19.1777 23.2441 15.728V6.76858C23.2441 3.31891 20.3132 0.496582 16.7308 0.496582V0.496582Z" fill="#274C5B"/>
<path d="M18.1264 6.76923C17.8504 6.76923 17.5805 6.69041 17.351 6.54273C17.1215 6.39506 16.9426 6.18516 16.837 5.93958C16.7313 5.694 16.7037 5.42377 16.7576 5.16307C16.8114 4.90237 16.9443 4.66289 17.1395 4.47494C17.3347 4.28698 17.5834 4.15898 17.8541 4.10712C18.1248 4.05527 18.4055 4.08188 18.6605 4.1836C18.9155 4.28532 19.1335 4.45758 19.2868 4.6786C19.4402 4.89961 19.5221 5.15945 19.5221 5.42526C19.5224 5.60186 19.4866 5.7768 19.4166 5.94003C19.3466 6.10326 19.2438 6.25156 19.1142 6.37644C18.9845 6.50131 18.8305 6.60029 18.661 6.6677C18.4915 6.73511 18.3098 6.76961 18.1264 6.76923V6.76923ZM12.0787 7.66489C12.8148 7.66489 13.5344 7.87509 14.1465 8.26891C14.7586 8.66274 15.2356 9.22249 15.5173 9.87739C15.799 10.5323 15.8727 11.2529 15.7291 11.9482C15.5855 12.6434 15.231 13.282 14.7105 13.7833C14.19 14.2845 13.5268 14.6259 12.8048 14.7642C12.0828 14.9024 11.3345 14.8315 10.6544 14.5602C9.97431 14.2889 9.39303 13.8296 8.98406 13.2402C8.57509 12.6508 8.3568 11.9578 8.3568 11.249C8.35786 10.2987 8.75033 9.38768 9.44809 8.71576C10.1459 8.04384 11.0919 7.6659 12.0787 7.66489V7.66489ZM12.0787 5.87309C10.9746 5.87309 9.89524 6.18838 8.97718 6.77909C8.05912 7.3698 7.34358 8.20939 6.92105 9.1917C6.49851 10.174 6.38796 11.2549 6.60336 12.2977C6.81877 13.3406 7.35047 14.2984 8.13121 15.0503C8.91195 15.8021 9.90668 16.3141 10.9896 16.5215C12.0725 16.729 13.195 16.6225 14.2151 16.2156C15.2352 15.8087 16.1071 15.1197 16.7205 14.2356C17.3339 13.3516 17.6613 12.3122 17.6613 11.249C17.6613 9.82319 17.0732 8.45582 16.0262 7.44765C14.9793 6.43948 13.5593 5.87309 12.0787 5.87309V5.87309Z" fill="#274C5B"/>
</svg>
