<svg width="40" height="56" viewBox="0 0 40 56" fill="none" xmlns="http://www.w3.org/2000/svg">
<path d="M2.45508 41.9258H19.8954H37.3357" stroke="#7EB693" stroke-width="2" stroke-miterlimit="10"/>
<path d="M6.39551 48.3574L19.8955 48.3574L33.3955 48.3574" stroke="#7EB693" stroke-width="2" stroke-miterlimit="10"/>
<path d="M19.3955 1.35742L19.3955 8.35742L19.3955 15.3574" stroke="#7EB693" stroke-width="2" stroke-miterlimit="10"/>
<path d="M19.4702 14.6426V41.0742" stroke="#7EB693" stroke-width="2" stroke-miterlimit="10"/>
<path d="M30.5299 4.41016L19.4702 15.4944" stroke="#7EB693" stroke-width="2" stroke-miterlimit="10"/>
<path d="M34.7836 8.67383L19.4702 24.0212" stroke="#7EB693" stroke-width="2" stroke-miterlimit="10"/>
<path d="M37.3359 15.4941L19.4702 32.5468" stroke="#7EB693" stroke-width="2" stroke-miterlimit="10"/>
<path d="M38.1866 23.168L19.4702 41.9259" stroke="#7EB693" stroke-width="2" stroke-miterlimit="10"/>
<path d="M38.1865 31.6953L27.9775 41.9269" stroke="#7EB693" stroke-width="2" stroke-miterlimit="10"/>
<path d="M1.60449 31.6953L11.8134 41.9269" stroke="#7EB693" stroke-width="2" stroke-miterlimit="10"/>
<path d="M9.26123 4.41016L19.4702 15.4944" stroke="#7EB693" stroke-width="2" stroke-miterlimit="10"/>
<path d="M5.00732 8.67383L19.47 24.0212" stroke="#7EB693" stroke-width="2" stroke-miterlimit="10"/>
<path d="M2.45508 14.6426L19.47 32.5478" stroke="#7EB693" stroke-width="2" stroke-miterlimit="10"/>
<path d="M1.60449 22.3164L19.4702 41.0743" stroke="#7EB693" stroke-width="2" stroke-miterlimit="10"/>
<path d="M19.8955 54.7158C9.79468 54.7158 1.60449 46.2635 1.60449 35.8351V19.8806C1.60449 9.45419 9.79468 1 19.8955 1C29.9982 1 38.1866 9.45419 38.1866 19.8806V35.8351C38.1884 46.2635 29.9982 54.7158 19.8955 54.7158Z" stroke="#7EB693" stroke-width="2" stroke-miterlimit="10"/>
</svg>
