<svg width="39" height="56" viewBox="0 0 39 56" fill="none" xmlns="http://www.w3.org/2000/svg">
<path d="M1.95703 41.9258H19.3973H36.8376" stroke="#7EB693" stroke-width="2" stroke-miterlimit="10"/>
<path d="M5.89648 48.3574L19.3965 48.3574L32.8965 48.3574" stroke="#7EB693" stroke-width="2" stroke-miterlimit="10"/>
<path d="M18.8965 1.35742L18.8965 8.35742L18.8965 15.3574" stroke="#7EB693" stroke-width="2" stroke-miterlimit="10"/>
<path d="M18.9707 14.6426V41.0742" stroke="#7EB693" stroke-width="2" stroke-miterlimit="10"/>
<path d="M30.0304 4.41016L18.9707 15.4944" stroke="#7EB693" stroke-width="2" stroke-miterlimit="10"/>
<path d="M34.2841 8.67383L18.9707 24.0212" stroke="#7EB693" stroke-width="2" stroke-miterlimit="10"/>
<path d="M36.8364 15.4941L18.9707 32.5468" stroke="#7EB693" stroke-width="2" stroke-miterlimit="10"/>
<path d="M37.6871 23.168L18.9707 41.9259" stroke="#7EB693" stroke-width="2" stroke-miterlimit="10"/>
<path d="M37.6875 31.6953L27.4785 41.9269" stroke="#7EB693" stroke-width="2" stroke-miterlimit="10"/>
<path d="M1.10547 31.6953L11.3144 41.9269" stroke="#7EB693" stroke-width="2" stroke-miterlimit="10"/>
<path d="M8.76172 4.41016L18.9707 15.4944" stroke="#7EB693" stroke-width="2" stroke-miterlimit="10"/>
<path d="M4.50781 8.67383L18.9705 24.0212" stroke="#7EB693" stroke-width="2" stroke-miterlimit="10"/>
<path d="M1.95703 14.6426L18.972 32.5478" stroke="#7EB693" stroke-width="2" stroke-miterlimit="10"/>
<path d="M1.10547 22.3164L18.9711 41.0743" stroke="#7EB693" stroke-width="2" stroke-miterlimit="10"/>
<path d="M19.3965 54.7158C9.29565 54.7158 1.10547 46.2635 1.10547 35.8351V19.8806C1.10547 9.45419 9.29565 1 19.3965 1C29.4992 1 37.6876 9.45419 37.6876 19.8806V35.8351C37.6894 46.2635 29.4992 54.7158 19.3965 54.7158Z" stroke="#7EB693" stroke-width="2" stroke-miterlimit="10"/>
</svg>
