<svg width="39" height="56" viewBox="0 0 39 56" fill="none" xmlns="http://www.w3.org/2000/svg">
<path d="M1.95508 42.0684H19.3954H36.8357" stroke="#7EB693" stroke-width="2" stroke-miterlimit="10"/>
<path d="M5.89551 48.5L19.3955 48.5L32.8955 48.5" stroke="#7EB693" stroke-width="2" stroke-miterlimit="10"/>
<path d="M18.8955 1.50002L18.8955 8.50002L18.8955 15.5" stroke="#7EB693" stroke-width="2" stroke-miterlimit="10"/>
<path d="M18.9697 14.7842V41.2158" stroke="#7EB693" stroke-width="2" stroke-miterlimit="10"/>
<path d="M30.0294 4.55275L18.9697 15.637" stroke="#7EB693" stroke-width="2" stroke-miterlimit="10"/>
<path d="M34.2832 8.81593L18.9697 24.1633" stroke="#7EB693" stroke-width="2" stroke-miterlimit="10"/>
<path d="M36.8354 15.6367L18.9697 32.6894" stroke="#7EB693" stroke-width="2" stroke-miterlimit="10"/>
<path d="M37.6861 23.3106L18.9697 42.0685" stroke="#7EB693" stroke-width="2" stroke-miterlimit="10"/>
<path d="M37.6865 31.8369L27.4775 42.0685" stroke="#7EB693" stroke-width="2" stroke-miterlimit="10"/>
<path d="M1.10449 31.8369L11.3134 42.0685" stroke="#7EB693" stroke-width="2" stroke-miterlimit="10"/>
<path d="M8.76074 4.55275L18.9697 15.637" stroke="#7EB693" stroke-width="2" stroke-miterlimit="10"/>
<path d="M4.50781 8.81593L18.9705 24.1633" stroke="#7EB693" stroke-width="2" stroke-miterlimit="10"/>
<path d="M1.95508 14.7842L18.97 32.6895" stroke="#7EB693" stroke-width="2" stroke-miterlimit="10"/>
<path d="M1.10449 22.458L18.9702 41.2159" stroke="#7EB693" stroke-width="2" stroke-miterlimit="10"/>
<path d="M19.3955 54.8579C9.29468 54.8579 1.10449 46.4056 1.10449 35.9772V20.0228C1.10449 9.5963 9.29468 1.14211 19.3955 1.14211C29.4982 1.14211 37.6866 9.5963 37.6866 20.0228V35.9772C37.6884 46.4056 29.4982 54.8579 19.3955 54.8579Z" stroke="#7EB693" stroke-width="2" stroke-miterlimit="10"/>
</svg>
