<svg width="39" height="56" viewBox="0 0 39 56" fill="none" xmlns="http://www.w3.org/2000/svg">
<path d="M1.95703 42.0684H19.3973H36.8376" stroke="#7EB693" stroke-width="2" stroke-miterlimit="10"/>
<path d="M5.89648 48.5L19.3965 48.5L32.8965 48.5" stroke="#7EB693" stroke-width="2" stroke-miterlimit="10"/>
<path d="M18.8965 1.50002L18.8965 8.50002L18.8965 15.5" stroke="#7EB693" stroke-width="2" stroke-miterlimit="10"/>
<path d="M18.9707 14.7842V41.2158" stroke="#7EB693" stroke-width="2" stroke-miterlimit="10"/>
<path d="M30.0304 4.55275L18.9707 15.637" stroke="#7EB693" stroke-width="2" stroke-miterlimit="10"/>
<path d="M34.2841 8.81593L18.9707 24.1633" stroke="#7EB693" stroke-width="2" stroke-miterlimit="10"/>
<path d="M36.8364 15.6367L18.9707 32.6894" stroke="#7EB693" stroke-width="2" stroke-miterlimit="10"/>
<path d="M37.6871 23.3106L18.9707 42.0685" stroke="#7EB693" stroke-width="2" stroke-miterlimit="10"/>
<path d="M37.6875 31.8369L27.4785 42.0685" stroke="#7EB693" stroke-width="2" stroke-miterlimit="10"/>
<path d="M1.10547 31.8369L11.3144 42.0685" stroke="#7EB693" stroke-width="2" stroke-miterlimit="10"/>
<path d="M8.76172 4.55275L18.9707 15.637" stroke="#7EB693" stroke-width="2" stroke-miterlimit="10"/>
<path d="M4.50781 8.81593L18.9705 24.1633" stroke="#7EB693" stroke-width="2" stroke-miterlimit="10"/>
<path d="M1.95703 14.7842L18.972 32.6895" stroke="#7EB693" stroke-width="2" stroke-miterlimit="10"/>
<path d="M1.10547 22.458L18.9711 41.2159" stroke="#7EB693" stroke-width="2" stroke-miterlimit="10"/>
<path d="M19.3965 54.8579C9.29565 54.8579 1.10547 46.4056 1.10547 35.9772V20.0228C1.10547 9.5963 9.29565 1.14211 19.3965 1.14211C29.4992 1.14211 37.6876 9.5963 37.6876 20.0228V35.9772C37.6894 46.4056 29.4992 54.8579 19.3965 54.8579Z" stroke="#7EB693" stroke-width="2" stroke-miterlimit="10"/>
</svg>
