<svg width="377" height="66" viewBox="0 0 377 66" fill="none" xmlns="http://www.w3.org/2000/svg">
<rect x="0.896484" width="376" height="66" rx="33" fill="#FAFAFA"/>
<circle cx="342.896" cy="33" r="28" fill="#7EB693"/>
<path d="M354.575 40.8921L349.814 36.1315C350.96 34.6057 351.579 32.7485 351.577 30.8402C351.577 25.9657 347.611 22 342.737 22C337.862 22 333.896 25.9657 333.896 30.8402C333.896 35.7146 337.862 39.6803 342.737 39.6803C344.645 39.6824 346.502 39.0637 348.028 37.9175L352.789 42.6781C353.03 42.8936 353.344 43.0085 353.667 42.9995C353.99 42.9905 354.297 42.8581 354.526 42.6295C354.755 42.401 354.887 42.0936 354.896 41.7705C354.905 41.4474 354.79 41.1331 354.575 40.8921V40.8921ZM336.422 30.8402C336.422 29.5913 336.793 28.3705 337.486 27.3321C338.18 26.2937 339.166 25.4843 340.32 25.0064C341.474 24.5285 342.744 24.4034 343.969 24.6471C345.193 24.8907 346.319 25.4921 347.202 26.3752C348.085 27.2583 348.686 28.3834 348.93 29.6083C349.173 30.8332 349.048 32.1028 348.57 33.2566C348.092 34.4104 347.283 35.3966 346.245 36.0904C345.206 36.7842 343.986 37.1546 342.737 37.1546C341.063 37.1526 339.458 36.4866 338.274 35.3029C337.09 34.1192 336.424 32.5142 336.422 30.8402V30.8402Z" fill="#FAFAFA"/>
</svg>
