<svg width="377" height="66" viewBox="0 0 377 66" fill="none" xmlns="http://www.w3.org/2000/svg">
<rect x="0.895508" width="376" height="66" rx="33" fill="#FAFAFA"/>
<circle cx="342.896" cy="33" r="28" fill="#7EB693"/>
<path d="M354.574 40.8921L349.813 36.1315C350.959 34.6057 351.578 32.7485 351.576 30.8402C351.576 25.9657 347.61 22 342.736 22C337.861 22 333.896 25.9657 333.896 30.8402C333.896 35.7146 337.861 39.6803 342.736 39.6803C344.644 39.6824 346.501 39.0637 348.027 37.9175L352.788 42.6781C353.029 42.8936 353.343 43.0085 353.666 42.9995C353.989 42.9905 354.296 42.8581 354.525 42.6295C354.754 42.401 354.886 42.0936 354.895 41.7705C354.904 41.4474 354.789 41.1331 354.574 40.8921V40.8921ZM336.421 30.8402C336.421 29.5913 336.792 28.3705 337.485 27.3321C338.179 26.2937 339.165 25.4843 340.319 25.0064C341.473 24.5285 342.743 24.4034 343.968 24.6471C345.192 24.8907 346.318 25.4921 347.201 26.3752C348.084 27.2583 348.685 28.3834 348.929 29.6083C349.172 30.8332 349.047 32.1028 348.569 33.2566C348.091 34.4104 347.282 35.3966 346.244 36.0904C345.205 36.7842 343.985 37.1546 342.736 37.1546C341.062 37.1526 339.457 36.4866 338.273 35.3029C337.089 34.1192 336.423 32.5142 336.421 30.8402V30.8402Z" fill="#FAFAFA"/>
</svg>
