<svg width="84" height="19" viewBox="0 0 84 19" fill="none" xmlns="http://www.w3.org/2000/svg">
<path d="M8.67818 3.09367C8.98578 2.18997 10.2639 2.18998 10.5715 3.09367L11.555 5.98313C11.693 6.3884 12.0736 6.66091 12.5017 6.66091H15.5819C16.5618 6.66091 16.957 7.92416 16.1518 8.48262L13.7411 10.1546C13.3742 10.409 13.2204 10.8758 13.3643 11.2985L14.3038 14.0586C14.6146 14.9718 13.5799 15.7523 12.7872 15.2025L10.1947 13.4046C9.85199 13.1668 9.3977 13.1668 9.05495 13.4046L6.46248 15.2025C5.66981 15.7523 4.63508 14.9718 4.94592 14.0586L5.8854 11.2985C6.02927 10.8758 5.87551 10.409 5.50863 10.1546L3.09789 8.48263C2.29266 7.92416 2.68784 6.66091 3.66779 6.66091H6.748C7.1761 6.66091 7.55671 6.3884 7.69466 5.98313L8.67818 3.09367Z" fill="#FFA858"/>
<path d="M24.8608 3.23964C25.1602 2.31832 26.4636 2.31832 26.7629 3.23964L27.65 5.96992C27.7839 6.38194 28.1679 6.66091 28.6011 6.66091H31.4718C32.4405 6.66091 32.8433 7.90051 32.0596 8.46992L29.7371 10.1574C29.3866 10.412 29.24 10.8634 29.3738 11.2754L30.2609 14.0058C30.5603 14.9271 29.5058 15.6932 28.7221 15.1238L26.3997 13.4364C26.0492 13.1817 25.5746 13.1817 25.2241 13.4364L22.9016 15.1238C22.1179 15.6932 21.0634 14.9271 21.3628 14.0058L22.2499 11.2754C22.3838 10.8634 22.2371 10.412 21.8866 10.1574L19.5641 8.46991C18.7804 7.90051 19.1832 6.66091 20.1519 6.66091H23.0227C23.4559 6.66091 23.8398 6.38194 23.9737 5.96992L24.8608 3.23964Z" fill="#FFA858"/>
<path d="M41.0523 3.09367C41.3599 2.18997 42.638 2.18998 42.9456 3.09367L43.9291 5.98313C44.0671 6.3884 44.4477 6.66091 44.8758 6.66091H47.956C48.9359 6.66091 49.3311 7.92416 48.5259 8.48262L46.1151 10.1546C45.7483 10.409 45.5945 10.8758 45.7384 11.2985L46.6779 14.0586C46.9887 14.9718 45.954 15.7523 45.1613 15.2025L42.5688 13.4046C42.2261 13.1668 41.7718 13.1668 41.429 13.4046L38.8366 15.2025C38.0439 15.7523 37.0092 14.9718 37.32 14.0586L38.2595 11.2985C38.4034 10.8758 38.2496 10.409 37.8827 10.1546L35.472 8.48263C34.6667 7.92416 35.0619 6.66091 36.0419 6.66091H39.1221C39.5502 6.66091 39.9308 6.3884 40.0687 5.98313L41.0523 3.09367Z" fill="#FFA858"/>
<path d="M57.2349 3.23964C57.5342 2.31832 58.8377 2.31832 59.137 3.23964L60.0241 5.96992C60.158 6.38194 60.5419 6.66091 60.9752 6.66091H63.8459C64.8146 6.66091 65.2174 7.90051 64.4337 8.46992L62.1112 10.1574C61.7607 10.412 61.614 10.8634 61.7479 11.2754L62.635 14.0058C62.9344 14.9271 61.8799 15.6932 61.0962 15.1238L58.7737 13.4364C58.4233 13.1817 57.9486 13.1817 57.5982 13.4364L55.2757 15.1238C54.492 15.6932 53.4375 14.9271 53.7369 14.0058L54.624 11.2754C54.7579 10.8634 54.6112 10.412 54.2607 10.1574L51.9382 8.46991C51.1545 7.90051 51.5573 6.66091 52.526 6.66091H55.3967C55.83 6.66091 56.2139 6.38194 56.3478 5.96992L57.2349 3.23964Z" fill="#FFA858"/>
<path d="M73.4264 3.09367C73.734 2.18997 75.0121 2.18998 75.3197 3.09367L76.3032 5.98313C76.4411 6.3884 76.8218 6.66091 77.2499 6.66091H80.3301C81.31 6.66091 81.7052 7.92416 80.9 8.48262L78.4892 10.1546C78.1223 10.409 77.9686 10.8758 78.1125 11.2985L79.0519 14.0586C79.3628 14.9718 78.328 15.7523 77.5354 15.2025L74.9429 13.4046C74.6002 13.1668 74.1459 13.1668 73.8031 13.4046L71.2106 15.2025C70.418 15.7523 69.3833 14.9718 69.6941 14.0586L70.6336 11.2985C70.7774 10.8758 70.6237 10.409 70.2568 10.1546L67.8461 8.48263C67.0408 7.92416 67.436 6.66091 68.416 6.66091H71.4962C71.9243 6.66091 72.3049 6.3884 72.4428 5.98313L73.4264 3.09367Z" fill="#FFA858"/>
</svg>
