<svg width="85" height="19" viewBox="0 0 85 19" fill="none" xmlns="http://www.w3.org/2000/svg">
<path d="M9.58773 3.09367C9.89533 2.18997 11.1734 2.18998 11.4811 3.09367L12.4646 5.98313C12.6025 6.3884 12.9831 6.66091 13.4112 6.66091H16.4914C17.4714 6.66091 17.8666 7.92416 17.0613 8.48262L14.6506 10.1546C14.2837 10.409 14.13 10.8758 14.2738 11.2985L15.2133 14.0586C15.5241 14.9718 14.4894 15.7523 13.6968 15.2025L11.1043 13.4046C10.7615 13.1668 10.3072 13.1668 9.9645 13.4046L7.37202 15.2025C6.57936 15.7523 5.54463 14.9718 5.85547 14.0586L6.79495 11.2985C6.93882 10.8758 6.78506 10.409 6.41818 10.1546L4.00744 8.48263C3.2022 7.92416 3.59739 6.66091 4.57733 6.66091H7.65754C8.08565 6.66091 8.46626 6.3884 8.60421 5.98313L9.58773 3.09367Z" fill="#FFA858"/>
<path d="M25.7704 3.23964C26.0697 2.31832 27.3731 2.31832 27.6725 3.23964L28.5596 5.96992C28.6934 6.38194 29.0774 6.66091 29.5106 6.66091H32.3814C33.3501 6.66091 33.7529 7.90051 32.9692 8.46992L30.6466 10.1574C30.2962 10.412 30.1495 10.8634 30.2834 11.2754L31.1705 14.0058C31.4698 14.9271 30.4153 15.6932 29.6316 15.1238L27.3092 13.4364C26.9587 13.1817 26.4841 13.1817 26.1336 13.4364L23.8112 15.1238C23.0275 15.6932 21.973 14.9271 22.2723 14.0058L23.1595 11.2754C23.2933 10.8634 23.1467 10.412 22.7962 10.1574L20.4736 8.46991C19.6899 7.90051 20.0927 6.66091 21.0614 6.66091H23.9322C24.3654 6.66091 24.7494 6.38194 24.8833 5.96992L25.7704 3.23964Z" fill="#FFA858"/>
<path d="M41.9618 3.09367C42.2694 2.18997 43.5475 2.18998 43.8551 3.09367L44.8386 5.98313C44.9765 6.3884 45.3572 6.66091 45.7853 6.66091H48.8655C49.8454 6.66091 50.2406 7.92416 49.4354 8.48262L47.0246 10.1546C46.6577 10.409 46.504 10.8758 46.6479 11.2985L47.5873 14.0586C47.8982 14.9718 46.8634 15.7523 46.0708 15.2025L43.4783 13.4046C43.1356 13.1668 42.6813 13.1668 42.3385 13.4046L39.746 15.2025C38.9534 15.7523 37.9187 14.9718 38.2295 14.0586L39.169 11.2985C39.3128 10.8758 39.1591 10.409 38.7922 10.1546L36.3815 8.48263C35.5762 7.92416 35.9714 6.66091 36.9514 6.66091H40.0316C40.4597 6.66091 40.8403 6.3884 40.9782 5.98313L41.9618 3.09367Z" fill="#FFA858"/>
<path d="M58.1444 3.23964C58.4437 2.31832 59.7471 2.31832 60.0465 3.23964L60.9336 5.96992C61.0675 6.38194 61.4514 6.66091 61.8846 6.66091H64.7554C65.7241 6.66091 66.1269 7.90051 65.3432 8.46992L63.0207 10.1574C62.6702 10.412 62.5235 10.8634 62.6574 11.2754L63.5445 14.0058C63.8439 14.9271 62.7894 15.6932 62.0057 15.1238L59.6832 13.4364C59.3327 13.1817 58.8581 13.1817 58.5076 13.4364L56.1852 15.1238C55.4015 15.6932 54.347 14.9271 54.6464 14.0058L55.5335 11.2754C55.6673 10.8634 55.5207 10.412 55.1702 10.1574L52.8477 8.46991C52.064 7.90051 52.4668 6.66091 53.4355 6.66091H56.3062C56.7395 6.66091 57.1234 6.38194 57.2573 5.96992L58.1444 3.23964Z" fill="#FFA858"/>
<path d="M74.3358 3.09367C74.6434 2.18997 75.9215 2.18998 76.2291 3.09367L77.2126 5.98313C77.3506 6.3884 77.7312 6.66091 78.1593 6.66091H81.2395C82.2194 6.66091 82.6146 7.92416 81.8094 8.48262L79.3986 10.1546C79.0318 10.409 78.878 10.8758 79.0219 11.2985L79.9614 14.0586C80.2722 14.9718 79.2375 15.7523 78.4448 15.2025L75.8523 13.4046C75.5096 13.1668 75.0553 13.1668 74.7125 13.4046L72.1201 15.2025C71.3274 15.7523 70.2927 14.9718 70.6035 14.0586L71.543 11.2985C71.6869 10.8758 71.5331 10.409 71.1662 10.1546L68.7555 8.48263C67.9502 7.92416 68.3454 6.66091 69.3254 6.66091H72.4056C72.8337 6.66091 73.2143 6.3884 73.3523 5.98313L74.3358 3.09367Z" fill="#FFA858"/>
</svg>
