<svg width="85" height="19" viewBox="0 0 85 19" fill="none" xmlns="http://www.w3.org/2000/svg">
<path d="M9.58797 3.09367C9.89557 2.18997 11.1737 2.18998 11.4813 3.09367L12.4648 5.98313C12.6028 6.3884 12.9834 6.66091 13.4115 6.66091H16.4917C17.4716 6.66091 17.8668 7.92416 17.0616 8.48262L14.6508 10.1546C14.284 10.409 14.1302 10.8758 14.2741 11.2985L15.2136 14.0586C15.5244 14.9718 14.4897 15.7523 13.697 15.2025L11.1045 13.4046C10.7618 13.1668 10.3075 13.1668 9.96474 13.4046L7.37227 15.2025C6.5796 15.7523 5.54487 14.9718 5.85571 14.0586L6.79519 11.2985C6.93906 10.8758 6.78531 10.409 6.41842 10.1546L4.00769 8.48263C3.20245 7.92416 3.59763 6.66091 4.57758 6.66091H7.65779C8.08589 6.66091 8.4665 6.3884 8.60445 5.98313L9.58797 3.09367Z" fill="#FFA858"/>
<path d="M25.7706 3.23964C26.0699 2.31832 27.3734 2.31832 27.6727 3.23964L28.5598 5.96992C28.6937 6.38194 29.0776 6.66091 29.5109 6.66091H32.3816C33.3503 6.66091 33.7531 7.90051 32.9694 8.46992L30.6469 10.1574C30.2964 10.412 30.1498 10.8634 30.2836 11.2754L31.1707 14.0058C31.4701 14.9271 30.4156 15.6932 29.6319 15.1238L27.3095 13.4364C26.959 13.1817 26.4844 13.1817 26.1339 13.4364L23.8114 15.1238C23.0277 15.6932 21.9732 14.9271 22.2726 14.0058L23.1597 11.2754C23.2936 10.8634 23.1469 10.412 22.7964 10.1574L20.4739 8.46991C19.6902 7.90051 20.093 6.66091 21.0617 6.66091H23.9324C24.3657 6.66091 24.7496 6.38194 24.8835 5.96992L25.7706 3.23964Z" fill="#FFA858"/>
<path d="M41.9621 3.09367C42.2697 2.18997 43.5478 2.18998 43.8554 3.09367L44.8389 5.98313C44.9768 6.3884 45.3575 6.66091 45.7856 6.66091H48.8658C49.8457 6.66091 50.2409 7.92416 49.4357 8.48262L47.0249 10.1546C46.658 10.409 46.5043 10.8758 46.6482 11.2985L47.5876 14.0586C47.8985 14.9718 46.8638 15.7523 46.0711 15.2025L43.4786 13.4046C43.1359 13.1668 42.6816 13.1668 42.3388 13.4046L39.7464 15.2025C38.9537 15.7523 37.919 14.9718 38.2298 14.0586L39.1693 11.2985C39.3131 10.8758 39.1594 10.409 38.7925 10.1546L36.3818 8.48263C35.5765 7.92416 35.9717 6.66091 36.9517 6.66091H40.0319C40.46 6.66091 40.8406 6.3884 40.9785 5.98313L41.9621 3.09367Z" fill="#FFA858"/>
<path d="M58.1447 3.23964C58.444 2.31832 59.7475 2.31832 60.0468 3.23964L60.9339 5.96992C61.0678 6.38194 61.4517 6.66091 61.885 6.66091H64.7557C65.7244 6.66091 66.1272 7.90051 65.3435 8.46992L63.021 10.1574C62.6705 10.412 62.5238 10.8634 62.6577 11.2754L63.5448 14.0058C63.8442 14.9271 62.7897 15.6932 62.006 15.1238L59.6835 13.4364C59.333 13.1817 58.8584 13.1817 58.5079 13.4364L56.1855 15.1238C55.4018 15.6932 54.3473 14.9271 54.6467 14.0058L55.5338 11.2754C55.6676 10.8634 55.521 10.412 55.1705 10.1574L52.848 8.46991C52.0643 7.90051 52.4671 6.66091 53.4358 6.66091H56.3065C56.7398 6.66091 57.1237 6.38194 57.2576 5.96992L58.1447 3.23964Z" fill="#FFA858"/>
<path d="M74.3361 3.09367C74.6437 2.18997 75.9219 2.18998 76.2295 3.09367L77.213 5.98313C77.3509 6.3884 77.7315 6.66091 78.1596 6.66091H81.2399C82.2198 6.66091 82.615 7.92416 81.8098 8.48262L79.399 10.1546C79.0321 10.409 78.8784 10.8758 79.0222 11.2985L79.9617 14.0586C80.2726 14.9718 79.2378 15.7523 78.4452 15.2025L75.8527 13.4046C75.5099 13.1668 75.0557 13.1668 74.7129 13.4046L72.1204 15.2025C71.3278 15.7523 70.293 14.9718 70.6039 14.0586L71.5434 11.2985C71.6872 10.8758 71.5335 10.409 71.1666 10.1546L68.7559 8.48263C67.9506 7.92416 68.3458 6.66091 69.3257 6.66091H72.406C72.8341 6.66091 73.2147 6.3884 73.3526 5.98313L74.3361 3.09367Z" fill="#FFA858"/>
</svg>
