<svg width="85" height="19" viewBox="0 0 85 19" fill="none" xmlns="http://www.w3.org/2000/svg">
<path d="M8.76839 3.09367C9.07599 2.18997 10.3541 2.18998 10.6617 3.09367L11.6452 5.98313C11.7832 6.3884 12.1638 6.66091 12.5919 6.66091H15.6721C16.6521 6.66091 17.0472 7.92416 16.242 8.48262L13.8313 10.1546C13.4644 10.409 13.3106 10.8758 13.4545 11.2985L14.394 14.0586C14.7048 14.9718 13.6701 15.7523 12.8774 15.2025L10.2849 13.4046C9.9422 13.1668 9.48791 13.1668 9.14516 13.4046L6.55269 15.2025C5.76002 15.7523 4.72529 14.9718 5.03613 14.0586L5.97561 11.2985C6.11948 10.8758 5.96572 10.409 5.59884 10.1546L3.1881 8.48263C2.38287 7.92416 2.77805 6.66091 3.758 6.66091H6.83821C7.26631 6.66091 7.64692 6.3884 7.78487 5.98313L8.76839 3.09367Z" fill="#FFA858"/>
<path d="M24.951 3.23964C25.2504 2.31832 26.5538 2.31832 26.8532 3.23964L27.7403 5.96992C27.8741 6.38194 28.2581 6.66091 28.6913 6.66091H31.5621C32.5308 6.66091 32.9336 7.90051 32.1499 8.46992L29.8273 10.1574C29.4769 10.412 29.3302 10.8634 29.4641 11.2754L30.3512 14.0058C30.6505 14.9271 29.596 15.6932 28.8123 15.1238L26.4899 13.4364C26.1394 13.1817 25.6648 13.1817 25.3143 13.4364L22.9919 15.1238C22.2082 15.6932 21.1537 14.9271 21.453 14.0058L22.3401 11.2754C22.474 10.8634 22.3274 10.412 21.9769 10.1574L19.6543 8.46991C18.8706 7.90051 19.2734 6.66091 20.2421 6.66091H23.1129C23.5461 6.66091 23.9301 6.38194 24.064 5.96992L24.951 3.23964Z" fill="#FFA858"/>
<path d="M41.1425 3.09367C41.4501 2.18997 42.7282 2.18998 43.0358 3.09367L44.0193 5.98313C44.1573 6.3884 44.5379 6.66091 44.966 6.66091H48.0462C49.0261 6.66091 49.4213 7.92416 48.6161 8.48262L46.2054 10.1546C45.8385 10.409 45.6847 10.8758 45.8286 11.2985L46.7681 14.0586C47.0789 14.9718 46.0442 15.7523 45.2515 15.2025L42.659 13.4046C42.3163 13.1668 41.862 13.1668 41.5192 13.4046L38.9268 15.2025C38.1341 15.7523 37.0994 14.9718 37.4102 14.0586L38.3497 11.2985C38.4936 10.8758 38.3398 10.409 37.9729 10.1546L35.5622 8.48263C34.757 7.92416 35.1521 6.66091 36.1321 6.66091H39.2123C39.6404 6.66091 40.021 6.3884 40.159 5.98313L41.1425 3.09367Z" fill="#FFA858"/>
<path d="M57.3251 3.23964C57.6245 2.31832 58.9279 2.31832 59.2272 3.23964L60.1143 5.96992C60.2482 6.38194 60.6321 6.66091 61.0654 6.66091H63.9361C64.9048 6.66091 65.3076 7.90051 64.5239 8.46992L62.2014 10.1574C61.8509 10.412 61.7043 10.8634 61.8381 11.2754L62.7252 14.0058C63.0246 14.9271 61.9701 15.6932 61.1864 15.1238L58.864 13.4364C58.5135 13.1817 58.0389 13.1817 57.6884 13.4364L55.3659 15.1238C54.5822 15.6932 53.5277 14.9271 53.8271 14.0058L54.7142 11.2754C54.8481 10.8634 54.7014 10.412 54.3509 10.1574L52.0284 8.46991C51.2447 7.90051 51.6475 6.66091 52.6162 6.66091H55.487C55.9202 6.66091 56.3041 6.38194 56.438 5.96992L57.3251 3.23964Z" fill="#FFA858"/>
<path d="M73.5165 3.09367C73.8241 2.18997 75.1023 2.18998 75.4099 3.09367L76.3934 5.98313C76.5313 6.3884 76.9119 6.66091 77.34 6.66091H80.4202C81.4002 6.66091 81.7954 7.92416 80.9901 8.48262L78.5794 10.1546C78.2125 10.409 78.0588 10.8758 78.2026 11.2985L79.1421 14.0586C79.453 14.9718 78.4182 15.7523 77.6256 15.2025L75.0331 13.4046C74.6903 13.1668 74.236 13.1668 73.8933 13.4046L71.3008 15.2025C70.5082 15.7523 69.4734 14.9718 69.7843 14.0586L70.7238 11.2985C70.8676 10.8758 70.7139 10.409 70.347 10.1546L67.9362 8.48263C67.131 7.92416 67.5262 6.66091 68.5061 6.66091H71.5863C72.0144 6.66091 72.3951 6.3884 72.533 5.98313L73.5165 3.09367Z" fill="#FFA858"/>
</svg>
