<svg width="85" height="19" viewBox="0 0 85 19" fill="none" xmlns="http://www.w3.org/2000/svg">
<path d="M9.4974 3.09367C9.805 2.18997 11.0831 2.18998 11.3907 3.09367L12.3742 5.98313C12.5122 6.3884 12.8928 6.66091 13.3209 6.66091H16.4011C17.3811 6.66091 17.7762 7.92416 16.971 8.48262L14.5603 10.1546C14.1934 10.409 14.0396 10.8758 14.1835 11.2985L15.123 14.0586C15.4338 14.9718 14.3991 15.7523 13.6064 15.2025L11.014 13.4046C10.6712 13.1668 10.2169 13.1668 9.87416 13.4046L7.28169 15.2025C6.48902 15.7523 5.4543 14.9718 5.76513 14.0586L6.70462 11.2985C6.84848 10.8758 6.69473 10.409 6.32785 10.1546L3.91711 8.48263C3.11187 7.92416 3.50706 6.66091 4.487 6.66091H7.56721C7.99531 6.66091 8.37593 6.3884 8.51387 5.98313L9.4974 3.09367Z" fill="#FFA858"/>
<path d="M25.68 3.23964C25.9794 2.31832 27.2828 2.31832 27.5821 3.23964L28.4692 5.96992C28.6031 6.38194 28.9871 6.66091 29.4203 6.66091H32.291C33.2598 6.66091 33.6625 7.90051 32.8788 8.46992L30.5563 10.1574C30.2058 10.412 30.0592 10.8634 30.193 11.2754L31.0802 14.0058C31.3795 14.9271 30.325 15.6932 29.5413 15.1238L27.2189 13.4364C26.8684 13.1817 26.3938 13.1817 26.0433 13.4364L23.7209 15.1238C22.9371 15.6932 21.8827 14.9271 22.182 14.0058L23.0691 11.2754C23.203 10.8634 23.0563 10.412 22.7059 10.1574L20.3833 8.46991C19.5996 7.90051 20.0024 6.66091 20.9711 6.66091H23.8419C24.2751 6.66091 24.6591 6.38194 24.7929 5.96992L25.68 3.23964Z" fill="#FFA858"/>
<path d="M41.8714 3.09367C42.179 2.18997 43.4571 2.18998 43.7647 3.09367L44.7483 5.98313C44.8862 6.3884 45.2668 6.66091 45.6949 6.66091H48.7751C49.7551 6.66091 50.1503 7.92416 49.345 8.48262L46.9343 10.1546C46.5674 10.409 46.4137 10.8758 46.5575 11.2985L47.497 14.0586C47.8078 14.9718 46.7731 15.7523 45.9804 15.2025L43.388 13.4046C43.0452 13.1668 42.5909 13.1668 42.2482 13.4046L39.6557 15.2025C38.863 15.7523 37.8283 14.9718 38.1392 14.0586L39.0786 11.2985C39.2225 10.8758 39.0688 10.409 38.7019 10.1546L36.2911 8.48263C35.4859 7.92416 35.8811 6.66091 36.861 6.66091H39.9412C40.3693 6.66091 40.75 6.3884 40.8879 5.98313L41.8714 3.09367Z" fill="#FFA858"/>
<path d="M58.054 3.23964C58.3534 2.31832 59.6568 2.31832 59.9562 3.23964L60.8433 5.96992C60.9771 6.38194 61.3611 6.66091 61.7943 6.66091H64.6651C65.6338 6.66091 66.0366 7.90051 65.2529 8.46992L62.9303 10.1574C62.5799 10.412 62.4332 10.8634 62.5671 11.2754L63.4542 14.0058C63.7535 14.9271 62.699 15.6932 61.9153 15.1238L59.5929 13.4364C59.2424 13.1817 58.7678 13.1817 58.4173 13.4364L56.0949 15.1238C55.3112 15.6932 54.2567 14.9271 54.556 14.0058L55.4431 11.2754C55.577 10.8634 55.4304 10.412 55.0799 10.1574L52.7573 8.46991C51.9736 7.90051 52.3764 6.66091 53.3451 6.66091H56.2159C56.6491 6.66091 57.0331 6.38194 57.167 5.96992L58.054 3.23964Z" fill="#FFA858"/>
<path d="M74.2454 3.09367C74.553 2.18997 75.8312 2.18998 76.1388 3.09367L77.1223 5.98313C77.2602 6.3884 77.6408 6.66091 78.0689 6.66091H81.1492C82.1291 6.66091 82.5243 7.92416 81.7191 8.48262L79.3083 10.1546C78.9414 10.409 78.7877 10.8758 78.9315 11.2985L79.871 14.0586C80.1819 14.9718 79.1471 15.7523 78.3545 15.2025L75.762 13.4046C75.4193 13.1668 74.965 13.1668 74.6222 13.4046L72.0297 15.2025C71.2371 15.7523 70.2023 14.9718 70.5132 14.0586L71.4527 11.2985C71.5965 10.8758 71.4428 10.409 71.0759 10.1546L68.6652 8.48263C67.8599 7.92416 68.2551 6.66091 69.235 6.66091H72.3153C72.7434 6.66091 73.124 6.3884 73.2619 5.98313L74.2454 3.09367Z" fill="#FFA858"/>
</svg>
