<svg width="85" height="19" viewBox="0 0 85 19" fill="none" xmlns="http://www.w3.org/2000/svg">
<path d="M9.49764 3.09367C9.80524 2.18997 11.0834 2.18998 11.391 3.09367L12.3745 5.98313C12.5124 6.3884 12.893 6.66091 13.3211 6.66091H16.4014C17.3813 6.66091 17.7765 7.92416 16.9713 8.48262L14.5605 10.1546C14.1936 10.409 14.0399 10.8758 14.1837 11.2985L15.1232 14.0586C15.4341 14.9718 14.3993 15.7523 13.6067 15.2025L11.0142 13.4046C10.6714 13.1668 10.2172 13.1668 9.87441 13.4046L7.28193 15.2025C6.48927 15.7523 5.45454 14.9718 5.76538 14.0586L6.70486 11.2985C6.84873 10.8758 6.69497 10.409 6.32809 10.1546L3.91735 8.48263C3.11212 7.92416 3.5073 6.66091 4.48725 6.66091H7.56746C7.99556 6.66091 8.37617 6.3884 8.51412 5.98313L9.49764 3.09367Z" fill="#FFA858"/>
<path d="M25.6803 3.23964C25.9796 2.31832 27.283 2.31832 27.5824 3.23964L28.4695 5.96992C28.6034 6.38194 28.9873 6.66091 29.4205 6.66091H32.2913C33.26 6.66091 33.6628 7.90051 32.8791 8.46992L30.5565 10.1574C30.2061 10.412 30.0594 10.8634 30.1933 11.2754L31.0804 14.0058C31.3798 14.9271 30.3253 15.6932 29.5416 15.1238L27.2191 13.4364C26.8686 13.1817 26.394 13.1817 26.0435 13.4364L23.7211 15.1238C22.9374 15.6932 21.8829 14.9271 22.1822 14.0058L23.0694 11.2754C23.2032 10.8634 23.0566 10.412 22.7061 10.1574L20.3836 8.46991C19.5999 7.90051 20.0026 6.66091 20.9714 6.66091H23.8421C24.2753 6.66091 24.6593 6.38194 24.7932 5.96992L25.6803 3.23964Z" fill="#FFA858"/>
<path d="M41.8718 3.09367C42.1794 2.18997 43.4575 2.18998 43.7651 3.09367L44.7486 5.98313C44.8866 6.3884 45.2672 6.66091 45.6953 6.66091H48.7755C49.7554 6.66091 50.1506 7.92416 49.3454 8.48262L46.9347 10.1546C46.5678 10.409 46.414 10.8758 46.5579 11.2985L47.4974 14.0586C47.8082 14.9718 46.7735 15.7523 45.9808 15.2025L43.3883 13.4046C43.0456 13.1668 42.5913 13.1668 42.2486 13.4046L39.6561 15.2025C38.8634 15.7523 37.8287 14.9718 38.1395 14.0586L39.079 11.2985C39.2229 10.8758 39.0691 10.409 38.7022 10.1546L36.2915 8.48263C35.4863 7.92416 35.8814 6.66091 36.8614 6.66091H39.9416C40.3697 6.66091 40.7503 6.3884 40.8883 5.98313L41.8718 3.09367Z" fill="#FFA858"/>
<path d="M58.0544 3.23964C58.3538 2.31832 59.6572 2.31832 59.9565 3.23964L60.8436 5.96992C60.9775 6.38194 61.3615 6.66091 61.7947 6.66091H64.6654C65.6342 6.66091 66.0369 7.90051 65.2532 8.46992L62.9307 10.1574C62.5802 10.412 62.4336 10.8634 62.5674 11.2754L63.4546 14.0058C63.7539 14.9271 62.6994 15.6932 61.9157 15.1238L59.5933 13.4364C59.2428 13.1817 58.7682 13.1817 58.4177 13.4364L56.0952 15.1238C55.3115 15.6932 54.257 14.9271 54.5564 14.0058L55.4435 11.2754C55.5774 10.8634 55.4307 10.412 55.0802 10.1574L52.7577 8.46991C51.974 7.90051 52.3768 6.66091 53.3455 6.66091H56.2163C56.6495 6.66091 57.0334 6.38194 57.1673 5.96992L58.0544 3.23964Z" fill="#FFA858"/>
<path d="M74.2458 3.09367C74.5534 2.18997 75.8315 2.18998 76.1391 3.09367L77.1227 5.98313C77.2606 6.3884 77.6412 6.66091 78.0693 6.66091H81.1495C82.1295 6.66091 82.5247 7.92416 81.7194 8.48262L79.3087 10.1546C78.9418 10.409 78.788 10.8758 78.9319 11.2985L79.8714 14.0586C80.1822 14.9718 79.1475 15.7523 78.3548 15.2025L75.7624 13.4046C75.4196 13.1668 74.9653 13.1668 74.6226 13.4046L72.0301 15.2025C71.2374 15.7523 70.2027 14.9718 70.5135 14.0586L71.453 11.2985C71.5969 10.8758 71.4431 10.409 71.0763 10.1546L68.6655 8.48263C67.8603 7.92416 68.2555 6.66091 69.2354 6.66091H72.3156C72.7437 6.66091 73.1243 6.3884 73.2623 5.98313L74.2458 3.09367Z" fill="#FFA858"/>
</svg>
