<svg width="85" height="19" viewBox="0 0 85 19" fill="none" xmlns="http://www.w3.org/2000/svg">
<path d="M8.85872 3.09367C9.16633 2.18997 10.4444 2.18998 10.752 3.09367L11.7356 5.98313C11.8735 6.3884 12.2541 6.66091 12.6822 6.66091H15.7624C16.7424 6.66091 17.1376 7.92416 16.3323 8.48262L13.9216 10.1546C13.5547 10.409 13.401 10.8758 13.5448 11.2985L14.4843 14.0586C14.7951 14.9718 13.7604 15.7523 12.9678 15.2025L10.3753 13.4046C10.0325 13.1668 9.57824 13.1668 9.23549 13.4046L6.64302 15.2025C5.85035 15.7523 4.81563 14.9718 5.12646 14.0586L6.06594 11.2985C6.20981 10.8758 6.05606 10.409 5.68917 10.1546L3.27844 8.48263C2.4732 7.92416 2.86839 6.66091 3.84833 6.66091H6.92854C7.35664 6.66091 7.73726 6.3884 7.8752 5.98313L8.85872 3.09367Z" fill="#FFA858"/>
<path d="M25.0414 3.23964C25.3407 2.31832 26.6441 2.31832 26.9435 3.23964L27.8306 5.96992C27.9644 6.38194 28.3484 6.66091 28.7816 6.66091H31.6524C32.6211 6.66091 33.0239 7.90051 32.2402 8.46992L29.9176 10.1574C29.5672 10.412 29.4205 10.8634 29.5544 11.2754L30.4415 14.0058C30.7408 14.9271 29.6863 15.6932 28.9026 15.1238L26.5802 13.4364C26.2297 13.1817 25.7551 13.1817 25.4046 13.4364L23.0822 15.1238C22.2985 15.6932 21.244 14.9271 21.5433 14.0058L22.4304 11.2754C22.5643 10.8634 22.4177 10.412 22.0672 10.1574L19.7446 8.46991C18.9609 7.90051 19.3637 6.66091 20.3324 6.66091H23.2032C23.6364 6.66091 24.0204 6.38194 24.1543 5.96992L25.0414 3.23964Z" fill="#FFA858"/>
<path d="M41.2327 3.09367C41.5404 2.18997 42.8185 2.18998 43.1261 3.09367L44.1096 5.98313C44.2475 6.3884 44.6282 6.66091 45.0563 6.66091H48.1365C49.1164 6.66091 49.5116 7.92416 48.7064 8.48262L46.2956 10.1546C45.9287 10.409 45.775 10.8758 45.9189 11.2985L46.8583 14.0586C47.1692 14.9718 46.1344 15.7523 45.3418 15.2025L42.7493 13.4046C42.4066 13.1668 41.9523 13.1668 41.6095 13.4046L39.017 15.2025C38.2244 15.7523 37.1897 14.9718 37.5005 14.0586L38.44 11.2985C38.5838 10.8758 38.4301 10.409 38.0632 10.1546L35.6525 8.48263C34.8472 7.92416 35.2424 6.66091 36.2224 6.66091H39.3026C39.7307 6.66091 40.1113 6.3884 40.2492 5.98313L41.2327 3.09367Z" fill="#FFA858"/>
<path d="M57.4154 3.23964C57.7147 2.31832 59.0181 2.31832 59.3175 3.23964L60.2046 5.96992C60.3385 6.38194 60.7224 6.66091 61.1556 6.66091H64.0264C64.9951 6.66091 65.3979 7.90051 64.6142 8.46992L62.2917 10.1574C61.9412 10.412 61.7945 10.8634 61.9284 11.2754L62.8155 14.0058C63.1149 14.9271 62.0604 15.6932 61.2767 15.1238L58.9542 13.4364C58.6037 13.1817 58.1291 13.1817 57.7786 13.4364L55.4562 15.1238C54.6725 15.6932 53.618 14.9271 53.9174 14.0058L54.8045 11.2754C54.9383 10.8634 54.7917 10.412 54.4412 10.1574L52.1187 8.46991C51.335 7.90051 51.7377 6.66091 52.7065 6.66091H55.5772C56.0105 6.66091 56.3944 6.38194 56.5283 5.96992L57.4154 3.23964Z" fill="#FFA858"/>
<path d="M73.6068 3.09367C73.9144 2.18997 75.1925 2.18998 75.5001 3.09367L76.4836 5.98313C76.6216 6.3884 77.0022 6.66091 77.4303 6.66091H80.5105C81.4904 6.66091 81.8856 7.92416 81.0804 8.48262L78.6696 10.1546C78.3028 10.409 78.149 10.8758 78.2929 11.2985L79.2324 14.0586C79.5432 14.9718 78.5085 15.7523 77.7158 15.2025L75.1233 13.4046C74.7806 13.1668 74.3263 13.1668 73.9835 13.4046L71.3911 15.2025C70.5984 15.7523 69.5637 14.9718 69.8745 14.0586L70.814 11.2985C70.9579 10.8758 70.8041 10.409 70.4372 10.1546L68.0265 8.48263C67.2212 7.92416 67.6164 6.66091 68.5964 6.66091H71.6766C72.1047 6.66091 72.4853 6.3884 72.6232 5.98313L73.6068 3.09367Z" fill="#FFA858"/>
</svg>
