<svg width="85" height="19" viewBox="0 0 85 19" fill="none" xmlns="http://www.w3.org/2000/svg">
<path d="M8.76815 3.09367C9.07575 2.18997 10.3539 2.18998 10.6615 3.09367L11.645 5.98313C11.7829 6.3884 12.1636 6.66091 12.5917 6.66091H15.6719C16.6518 6.66091 17.047 7.92416 16.2418 8.48262L13.831 10.1546C13.4641 10.409 13.3104 10.8758 13.4543 11.2985L14.3937 14.0586C14.7046 14.9718 13.6698 15.7523 12.8772 15.2025L10.2847 13.4046C9.94196 13.1668 9.48766 13.1668 9.14492 13.4046L6.55244 15.2025C5.75978 15.7523 4.72505 14.9718 5.03589 14.0586L5.97537 11.2985C6.11924 10.8758 5.96548 10.409 5.5986 10.1546L3.18786 8.48263C2.38262 7.92416 2.77781 6.66091 3.75775 6.66091H6.83796C7.26607 6.66091 7.64668 6.3884 7.78463 5.98313L8.76815 3.09367Z" fill="#FFA858"/>
<path d="M24.9508 3.23964C25.2501 2.31832 26.5535 2.31832 26.8529 3.23964L27.74 5.96992C27.8739 6.38194 28.2578 6.66091 28.691 6.66091H31.5618C32.5305 6.66091 32.9333 7.90051 32.1496 8.46992L29.8271 10.1574C29.4766 10.412 29.3299 10.8634 29.4638 11.2754L30.3509 14.0058C30.6503 14.9271 29.5958 15.6932 28.8121 15.1238L26.4896 13.4364C26.1391 13.1817 25.6645 13.1817 25.314 13.4364L22.9916 15.1238C22.2079 15.6932 21.1534 14.9271 21.4528 14.0058L22.3399 11.2754C22.4737 10.8634 22.3271 10.412 21.9766 10.1574L19.6541 8.46991C18.8704 7.90051 19.2731 6.66091 20.2419 6.66091H23.1126C23.5459 6.66091 23.9298 6.38194 24.0637 5.96992L24.9508 3.23964Z" fill="#FFA858"/>
<path d="M41.1422 3.09367C41.4498 2.18997 42.7279 2.18998 43.0355 3.09367L44.019 5.98313C44.157 6.3884 44.5376 6.66091 44.9657 6.66091H48.0459C49.0258 6.66091 49.421 7.92416 48.6158 8.48262L46.205 10.1546C45.8382 10.409 45.6844 10.8758 45.8283 11.2985L46.7678 14.0586C47.0786 14.9718 46.0439 15.7523 45.2512 15.2025L42.6587 13.4046C42.316 13.1668 41.8617 13.1668 41.5189 13.4046L38.9265 15.2025C38.1338 15.7523 37.0991 14.9718 37.4099 14.0586L38.3494 11.2985C38.4933 10.8758 38.3395 10.409 37.9726 10.1546L35.5619 8.48263C34.7566 7.92416 35.1518 6.66091 36.1318 6.66091H39.212C39.6401 6.66091 40.0207 6.3884 40.1586 5.98313L41.1422 3.09367Z" fill="#FFA858"/>
<path d="M57.3248 3.23964C57.6241 2.31832 58.9276 2.31832 59.2269 3.23964L60.114 5.96992C60.2479 6.38194 60.6318 6.66091 61.0651 6.66091H63.9358C64.9045 6.66091 65.3073 7.90051 64.5236 8.46992L62.2011 10.1574C61.8506 10.412 61.704 10.8634 61.8378 11.2754L62.7249 14.0058C63.0243 14.9271 61.9698 15.6932 61.1861 15.1238L58.8637 13.4364C58.5132 13.1817 58.0386 13.1817 57.6881 13.4364L55.3656 15.1238C54.5819 15.6932 53.5274 14.9271 53.8268 14.0058L54.7139 11.2754C54.8478 10.8634 54.7011 10.412 54.3506 10.1574L52.0281 8.46991C51.2444 7.90051 51.6472 6.66091 52.6159 6.66091H55.4866C55.9199 6.66091 56.3038 6.38194 56.4377 5.96992L57.3248 3.23964Z" fill="#FFA858"/>
<path d="M73.5162 3.09367C73.8238 2.18997 75.1019 2.18998 75.4095 3.09367L76.393 5.98313C76.531 6.3884 76.9116 6.66091 77.3397 6.66091H80.4199C81.3999 6.66091 81.795 7.92416 80.9898 8.48262L78.5791 10.1546C78.2122 10.409 78.0584 10.8758 78.2023 11.2985L79.1418 14.0586C79.4526 14.9718 78.4179 15.7523 77.6252 15.2025L75.0328 13.4046C74.69 13.1668 74.2357 13.1668 73.893 13.4046L71.3005 15.2025C70.5078 15.7523 69.4731 14.9718 69.7839 14.0586L70.7234 11.2985C70.8673 10.8758 70.7135 10.409 70.3466 10.1546L67.9359 8.48263C67.1307 7.92416 67.5259 6.66091 68.5058 6.66091H71.586C72.0141 6.66091 72.3947 6.3884 72.5327 5.98313L73.5162 3.09367Z" fill="#FFA858"/>
</svg>
