<svg width="85" height="20" viewBox="0 0 85 20" fill="none" xmlns="http://www.w3.org/2000/svg">
<path d="M9.17806 3.59367C9.48566 2.68997 10.7638 2.68998 11.0714 3.59367L12.0549 6.48313C12.1929 6.8884 12.5735 7.16091 13.0016 7.16091H16.0818C17.0617 7.16091 17.4569 8.42416 16.6517 8.98262L14.2409 10.6546C13.8741 10.909 13.7203 11.3758 13.8642 11.7985L14.8036 14.5586C15.1145 15.4718 14.0798 16.2523 13.2871 15.7025L10.6946 13.9046C10.3519 13.6668 9.89758 13.6668 9.55483 13.9046L6.96235 15.7025C6.16969 16.2523 5.13496 15.4718 5.4458 14.5586L6.38528 11.7985C6.52915 11.3758 6.37539 10.909 6.00851 10.6546L3.59777 8.98263C2.79254 8.42416 3.18772 7.16091 4.16767 7.16091H7.24788C7.67598 7.16091 8.05659 6.8884 8.19454 6.48313L9.17806 3.59367Z" fill="#FFA858"/>
<path d="M25.3607 3.73964C25.66 2.81832 26.9635 2.81832 27.2628 3.73964L28.1499 6.46992C28.2838 6.88194 28.6677 7.16091 29.101 7.16091H31.9717C32.9404 7.16091 33.3432 8.40051 32.5595 8.96992L30.237 10.6574C29.8865 10.912 29.7398 11.3634 29.8737 11.7754L30.7608 14.5058C31.0602 15.4271 30.0057 16.1932 29.222 15.6238L26.8995 13.9364C26.549 13.6817 26.0744 13.6817 25.7239 13.9364L23.4015 15.6238C22.6178 16.1932 21.5633 15.4271 21.8627 14.5058L22.7498 11.7754C22.8837 11.3634 22.737 10.912 22.3865 10.6574L20.064 8.96991C19.2803 8.40051 19.6831 7.16091 20.6518 7.16091H23.5225C23.9558 7.16091 24.3397 6.88194 24.4736 6.46992L25.3607 3.73964Z" fill="#FFA858"/>
<path d="M41.5521 3.59367C41.8597 2.68997 43.1379 2.68998 43.4455 3.59367L44.429 6.48313C44.5669 6.8884 44.9475 7.16091 45.3757 7.16091H48.4559C49.4358 7.16091 49.831 8.42416 49.0258 8.98262L46.615 10.6546C46.2481 10.909 46.0944 11.3758 46.2382 11.7985L47.1777 14.5586C47.4886 15.4718 46.4538 16.2523 45.6612 15.7025L43.0687 13.9046C42.726 13.6668 42.2717 13.6668 41.9289 13.9046L39.3364 15.7025C38.5438 16.2523 37.509 15.4718 37.8199 14.5586L38.7594 11.7985C38.9032 11.3758 38.7495 10.909 38.3826 10.6546L35.9719 8.98263C35.1666 8.42416 35.5618 7.16091 36.5417 7.16091H39.622C40.0501 7.16091 40.4307 6.8884 40.5686 6.48313L41.5521 3.59367Z" fill="#FFA858"/>
<path d="M57.7348 3.73964C58.0341 2.81832 59.3375 2.81832 59.6369 3.73964L60.524 6.46992C60.6579 6.88194 61.0418 7.16091 61.475 7.16091H64.3458C65.3145 7.16091 65.7173 8.40051 64.9336 8.96992L62.6111 10.6574C62.2606 10.912 62.1139 11.3634 62.2478 11.7754L63.1349 14.5058C63.4343 15.4271 62.3798 16.1932 61.5961 15.6238L59.2736 13.9364C58.9231 13.6817 58.4485 13.6817 58.098 13.9364L55.7756 15.6238C54.9919 16.1932 53.9374 15.4271 54.2367 14.5058L55.1239 11.7754C55.2577 11.3634 55.1111 10.912 54.7606 10.6574L52.4381 8.96991C51.6544 8.40051 52.0571 7.16091 53.0259 7.16091H55.8966C56.3298 7.16091 56.7138 6.88194 56.8477 6.46992L57.7348 3.73964Z" fill="#FFA858"/>
<path d="M73.9262 3.59367C74.2338 2.68997 75.512 2.68998 75.8196 3.59367L76.8031 6.48313C76.941 6.8884 77.3216 7.16091 77.7497 7.16091H80.8299C81.8099 7.16091 82.2051 8.42416 81.3998 8.98262L78.9891 10.6546C78.6222 10.909 78.4685 11.3758 78.6123 11.7985L79.5518 14.5586C79.8627 15.4718 78.8279 16.2523 78.0353 15.7025L75.4428 13.9046C75.1 13.6668 74.6457 13.6668 74.303 13.9046L71.7105 15.7025C70.9179 16.2523 69.8831 15.4718 70.194 14.5586L71.1334 11.7985C71.2773 11.3758 71.1236 10.909 70.7567 10.6546L68.3459 8.98263C67.5407 8.42416 67.9359 7.16091 68.9158 7.16091H71.996C72.4241 7.16091 72.8048 6.8884 72.9427 6.48313L73.9262 3.59367Z" fill="#FFA858"/>
</svg>
