<svg width="85" height="19" viewBox="0 0 85 19" fill="none" xmlns="http://www.w3.org/2000/svg">
<path d="M8.7679 3.09367C9.07551 2.18997 10.3536 2.18998 10.6612 3.09367L11.6447 5.98313C11.7827 6.3884 12.1633 6.66091 12.5914 6.66091H15.6716C16.6516 6.66091 17.0468 7.92416 16.2415 8.48262L13.8308 10.1546C13.4639 10.409 13.3101 10.8758 13.454 11.2985L14.3935 14.0586C14.7043 14.9718 13.6696 15.7523 12.8769 15.2025L10.2845 13.4046C9.94171 13.1668 9.48742 13.1668 9.14467 13.4046L6.5522 15.2025C5.75953 15.7523 4.72481 14.9718 5.03564 14.0586L5.97512 11.2985C6.11899 10.8758 5.96524 10.409 5.59835 10.1546L3.18762 8.48263C2.38238 7.92416 2.77757 6.66091 3.75751 6.66091H6.83772C7.26582 6.66091 7.64644 6.3884 7.78438 5.98313L8.7679 3.09367Z" fill="#FFA858"/>
<path d="M24.9505 3.23964C25.2499 2.31832 26.5533 2.31832 26.8526 3.23964L27.7397 5.96992C27.8736 6.38194 28.2576 6.66091 28.6908 6.66091H31.5616C32.5303 6.66091 32.9331 7.90051 32.1494 8.46992L29.8268 10.1574C29.4763 10.412 29.3297 10.8634 29.4636 11.2754L30.3507 14.0058C30.65 14.9271 29.5955 15.6932 28.8118 15.1238L26.4894 13.4364C26.1389 13.1817 25.6643 13.1817 25.3138 13.4364L22.9914 15.1238C22.2077 15.6932 21.1532 14.9271 21.4525 14.0058L22.3396 11.2754C22.4735 10.8634 22.3268 10.412 21.9764 10.1574L19.6538 8.46991C18.8701 7.90051 19.2729 6.66091 20.2416 6.66091H23.1124C23.5456 6.66091 23.9296 6.38194 24.0634 5.96992L24.9505 3.23964Z" fill="#FFA858"/>
<path d="M41.1419 3.09367C41.4495 2.18997 42.7276 2.18998 43.0353 3.09367L44.0188 5.98313C44.1567 6.3884 44.5373 6.66091 44.9654 6.66091H48.0456C49.0256 6.66091 49.4208 7.92416 48.6155 8.48262L46.2048 10.1546C45.8379 10.409 45.6842 10.8758 45.828 11.2985L46.7675 14.0586C47.0783 14.9718 46.0436 15.7523 45.251 15.2025L42.6585 13.4046C42.3157 13.1668 41.8614 13.1668 41.5187 13.4046L38.9262 15.2025C38.1336 15.7523 37.0988 14.9718 37.4097 14.0586L38.3491 11.2985C38.493 10.8758 38.3393 10.409 37.9724 10.1546L35.5616 8.48263C34.7564 7.92416 35.1516 6.66091 36.1315 6.66091H39.2117C39.6398 6.66091 40.0205 6.3884 40.1584 5.98313L41.1419 3.09367Z" fill="#FFA858"/>
<path d="M57.3246 3.23964C57.6239 2.31832 58.9273 2.31832 59.2267 3.23964L60.1138 5.96992C60.2476 6.38194 60.6316 6.66091 61.0648 6.66091H63.9356C64.9043 6.66091 65.3071 7.90051 64.5234 8.46992L62.2008 10.1574C61.8504 10.412 61.7037 10.8634 61.8376 11.2754L62.7247 14.0058C63.024 14.9271 61.9695 15.6932 61.1858 15.1238L58.8634 13.4364C58.5129 13.1817 58.0383 13.1817 57.6878 13.4364L55.3654 15.1238C54.5817 15.6932 53.5272 14.9271 53.8265 14.0058L54.7137 11.2754C54.8475 10.8634 54.7009 10.412 54.3504 10.1574L52.0278 8.46991C51.2441 7.90051 51.6469 6.66091 52.6156 6.66091H55.4864C55.9196 6.66091 56.3036 6.38194 56.4375 5.96992L57.3246 3.23964Z" fill="#FFA858"/>
<path d="M73.516 3.09367C73.8236 2.18997 75.1017 2.18998 75.4093 3.09367L76.3928 5.98313C76.5307 6.3884 76.9114 6.66091 77.3395 6.66091H80.4197C81.3996 6.66091 81.7948 7.92416 80.9896 8.48262L78.5788 10.1546C78.2119 10.409 78.0582 10.8758 78.2021 11.2985L79.1415 14.0586C79.4524 14.9718 78.4176 15.7523 77.625 15.2025L75.0325 13.4046C74.6898 13.1668 74.2355 13.1668 73.8927 13.4046L71.3002 15.2025C70.5076 15.7523 69.4729 14.9718 69.7837 14.0586L70.7232 11.2985C70.867 10.8758 70.7133 10.409 70.3464 10.1546L67.9357 8.48263C67.1304 7.92416 67.5256 6.66091 68.5056 6.66091H71.5858C72.0139 6.66091 72.3945 6.3884 72.5324 5.98313L73.516 3.09367Z" fill="#FFA858"/>
</svg>
