<svg width="25" height="20" viewBox="0 0 25 20" fill="none" xmlns="http://www.w3.org/2000/svg">
<path d="M24.7556 2.94605C23.8581 3.33601 22.9086 3.59293 21.9369 3.70868C22.958 3.11073 23.726 2.16078 24.0967 1.03699C23.1312 1.60153 22.0767 1.99764 20.9784 2.20835C20.5159 1.72362 19.9596 1.33801 19.3434 1.07495C18.7272 0.811885 18.064 0.676871 17.394 0.678109C14.6815 0.678109 12.4863 2.84138 12.4863 5.50808C12.4844 5.879 12.5269 6.24883 12.6129 6.60965C10.6678 6.51846 8.76315 6.02227 7.0208 5.15281C5.27845 4.28335 3.73677 3.05978 2.4944 1.56036C2.05854 2.29514 1.82804 3.13349 1.82698 3.98781C1.82698 5.6626 2.70076 7.14299 4.02015 8.01029C3.23845 7.99174 2.47276 7.78484 1.7881 7.40717V7.46698C1.7881 9.80969 3.48282 11.7586 5.72584 12.2022C5.30405 12.3147 4.86939 12.3717 4.43287 12.3717C4.12312 12.3723 3.81408 12.3422 3.51024 12.282C4.1338 14.201 5.94865 15.5967 8.09846 15.6366C6.35158 16.9828 4.20688 17.7105 2.00143 17.7051C1.60996 17.7045 1.21885 17.6812 0.830078 17.6353C3.07369 19.068 5.6817 19.8258 8.34369 19.8185C17.3836 19.8185 22.3222 12.4565 22.3222 6.07132C22.3222 5.86197 22.3167 5.65263 22.3067 5.44826C23.2653 4.76641 24.0946 3.91908 24.7556 2.94605V2.94605Z" fill="#274C5B"/>
</svg>
