<svg width="25" height="20" viewBox="0 0 25 20" fill="none" xmlns="http://www.w3.org/2000/svg">
<path d="M24.7561 2.94593C23.8586 3.33589 22.909 3.59281 21.9374 3.70855C22.9585 3.11061 23.7265 2.16066 24.0972 1.03687C23.1317 1.60141 22.0772 1.99752 20.9789 2.20822C20.5163 1.7235 19.9601 1.33789 19.3439 1.07482C18.7277 0.811763 18.0645 0.676749 17.3945 0.677987C14.682 0.677987 12.4868 2.84125 12.4868 5.50795C12.4849 5.87888 12.5274 6.24871 12.6134 6.60953C10.6683 6.51834 8.76364 6.02215 7.02129 5.15269C5.27894 4.28323 3.73726 3.05965 2.49489 1.56024C2.05903 2.29501 1.82853 3.13337 1.82746 3.98769C1.82746 5.66247 2.70124 7.14287 4.02064 8.01017C3.23894 7.99161 2.47325 7.78472 1.78858 7.40704V7.46686C1.78858 9.80957 3.48331 11.7585 5.72633 12.2021C5.30453 12.3146 4.86988 12.3715 4.43335 12.3716C4.12361 12.3721 3.81456 12.3421 3.51073 12.2819C4.13428 14.2009 5.94914 15.5966 8.09895 15.6364C6.35207 16.9827 4.20737 17.7103 2.00192 17.705C1.61045 17.7044 1.21934 17.6811 0.830566 17.6352C3.07417 19.0679 5.68219 19.8257 8.34418 19.8184C17.3841 19.8184 22.3227 12.4563 22.3227 6.0712C22.3227 5.86185 22.3172 5.6525 22.3072 5.44814C23.2658 4.76629 24.0951 3.91896 24.7561 2.94593V2.94593Z" fill="#274C5B"/>
</svg>
