<svg width="25" height="20" viewBox="0 0 25 20" fill="none" xmlns="http://www.w3.org/2000/svg">
<path d="M24.7561 3.01063C23.8586 3.40059 22.909 3.6575 21.9374 3.77325C22.9585 3.1753 23.7265 2.22535 24.0972 1.10157C23.1317 1.66611 22.0772 2.06221 20.9789 2.27292C20.5163 1.7882 19.9601 1.40258 19.3439 1.13952C18.7277 0.876461 18.0645 0.741446 17.3945 0.742684C14.682 0.742684 12.4868 2.90595 12.4868 5.57265C12.4849 5.94358 12.5274 6.3134 12.6134 6.67422C10.6683 6.58304 8.76364 6.08684 7.02129 5.21738C5.27894 4.34793 3.73726 3.12435 2.49489 1.62494C2.05903 2.35971 1.82853 3.19806 1.82746 4.05238C1.82746 5.72717 2.70124 7.20756 4.02064 8.07486C3.23894 8.05631 2.47325 7.84942 1.78858 7.47174V7.53155C1.78858 9.87426 3.48331 11.8232 5.72633 12.2668C5.30453 12.3793 4.86988 12.4362 4.43335 12.4363C4.12361 12.4368 3.81456 12.4068 3.51073 12.3466C4.13428 14.2656 5.94914 15.6613 8.09895 15.7011C6.35207 17.0474 4.20737 17.775 2.00192 17.7697C1.61045 17.7691 1.21934 17.7458 0.830566 17.6999C3.07417 19.1326 5.68219 19.8904 8.34418 19.8831C17.3841 19.8831 22.3227 12.521 22.3227 6.1359C22.3227 5.92655 22.3172 5.7172 22.3072 5.51284C23.2658 4.83099 24.0951 3.98365 24.7561 3.01063V3.01063Z" fill="#274C5B"/>
</svg>
