<svg width="25" height="20" viewBox="0 0 25 20" fill="none" xmlns="http://www.w3.org/2000/svg">
<path d="M24.7556 3.0105C23.8581 3.40047 22.9086 3.65738 21.9369 3.77313C22.958 3.17518 23.726 2.22523 24.0967 1.10145C23.1312 1.66598 22.0767 2.06209 20.9784 2.2728C20.5159 1.78807 19.9596 1.40246 19.3434 1.1394C18.7272 0.876339 18.064 0.741324 17.394 0.742562C14.6815 0.742562 12.4863 2.90583 12.4863 5.57253C12.4844 5.94346 12.5269 6.31328 12.6129 6.6741C10.6678 6.58292 8.76315 6.08672 7.0208 5.21726C5.27845 4.3478 3.73677 3.12423 2.4944 1.62482C2.05854 2.35959 1.82804 3.19794 1.82698 4.05226C1.82698 5.72705 2.70076 7.20744 4.02015 8.07474C3.23845 8.05619 2.47276 7.84929 1.7881 7.47162V7.53143C1.7881 9.87414 3.48282 11.8231 5.72584 12.2667C5.30405 12.3791 4.86939 12.4361 4.43287 12.4362C4.12312 12.4367 3.81408 12.4067 3.51024 12.3464C4.1338 14.2655 5.94865 15.6611 8.09846 15.701C6.35158 17.0473 4.20688 17.7749 2.00143 17.7696C1.60996 17.769 1.21885 17.7457 0.830078 17.6998C3.07369 19.1324 5.6817 19.8902 8.34369 19.883C17.3836 19.883 22.3222 12.5209 22.3222 6.13578C22.3222 5.92643 22.3167 5.71708 22.3067 5.51272C23.2653 4.83087 24.0946 3.98353 24.7556 3.0105V3.0105Z" fill="#274C5B"/>
</svg>
