<svg width="25" height="20" viewBox="0 0 25 20" fill="none" xmlns="http://www.w3.org/2000/svg">
<path d="M24.4998 2.94605C23.6023 3.33601 22.6527 3.59293 21.681 3.70868C22.7022 3.11073 23.4701 2.16078 23.8408 1.03699C22.8754 1.60153 21.8209 1.99764 20.7225 2.20835C20.26 1.72362 19.7037 1.33801 19.0876 1.07495C18.4714 0.811885 17.8082 0.676871 17.1382 0.678109C14.4256 0.678109 12.2304 2.84138 12.2304 5.50808C12.2285 5.879 12.271 6.24883 12.357 6.60965C10.4119 6.51846 8.50729 6.02227 6.76494 5.15281C5.02259 4.28335 3.48092 3.05978 2.23854 1.56036C1.80268 2.29514 1.57218 3.13349 1.57112 3.98781C1.57112 5.6626 2.4449 7.14299 3.76429 8.01029C2.98259 7.99174 2.2169 7.78484 1.53224 7.40717V7.46698C1.53224 9.80969 3.22696 11.7586 5.46998 12.2022C5.04819 12.3147 4.61353 12.3717 4.17701 12.3717C3.86726 12.3723 3.55822 12.3422 3.25438 12.282C3.87794 14.201 5.69279 15.5967 7.8426 15.6366C6.09572 16.9828 3.95102 17.7105 1.74557 17.7051C1.3541 17.7045 0.962992 17.6812 0.574219 17.6353C2.81783 19.068 5.42584 19.8258 8.08784 19.8185C17.1277 19.8185 22.0663 12.4565 22.0663 6.07132C22.0663 5.86197 22.0608 5.65263 22.0509 5.44826C23.0094 4.76641 23.8387 3.91908 24.4998 2.94605V2.94605Z" fill="#274C5B"/>
</svg>
