<svg width="25" height="20" viewBox="0 0 25 20" fill="none" xmlns="http://www.w3.org/2000/svg">
<path d="M24.4998 2.94593C23.6023 3.33589 22.6527 3.59281 21.681 3.70855C22.7022 3.11061 23.4701 2.16066 23.8408 1.03687C22.8754 1.60141 21.8209 1.99752 20.7225 2.20822C20.26 1.7235 19.7037 1.33789 19.0876 1.07482C18.4714 0.811763 17.8082 0.676749 17.1382 0.677987C14.4256 0.677987 12.2304 2.84125 12.2304 5.50795C12.2285 5.87888 12.271 6.24871 12.357 6.60953C10.4119 6.51834 8.50729 6.02215 6.76494 5.15269C5.02259 4.28323 3.48092 3.05965 2.23854 1.56024C1.80268 2.29501 1.57218 3.13337 1.57112 3.98769C1.57112 5.66247 2.4449 7.14287 3.76429 8.01017C2.98259 7.99161 2.2169 7.78472 1.53224 7.40704V7.46686C1.53224 9.80957 3.22696 11.7585 5.46998 12.2021C5.04819 12.3146 4.61353 12.3715 4.17701 12.3716C3.86726 12.3721 3.55822 12.3421 3.25438 12.2819C3.87794 14.2009 5.69279 15.5966 7.8426 15.6364C6.09572 16.9827 3.95102 17.7103 1.74557 17.705C1.3541 17.7044 0.962992 17.6811 0.574219 17.6352C2.81783 19.0679 5.42584 19.8257 8.08784 19.8184C17.1277 19.8184 22.0663 12.4563 22.0663 6.0712C22.0663 5.86185 22.0608 5.6525 22.0509 5.44814C23.0094 4.76629 23.8387 3.91896 24.4998 2.94593V2.94593Z" fill="#274C5B"/>
</svg>
