<svg width="25" height="20" viewBox="0 0 25 20" fill="none" xmlns="http://www.w3.org/2000/svg">
<path d="M24.7556 2.94593C23.8581 3.33589 22.9086 3.59281 21.9369 3.70855C22.958 3.11061 23.726 2.16066 24.0967 1.03687C23.1312 1.60141 22.0767 1.99752 20.9784 2.20822C20.5159 1.7235 19.9596 1.33789 19.3434 1.07482C18.7272 0.811763 18.064 0.676749 17.394 0.677987C14.6815 0.677987 12.4863 2.84125 12.4863 5.50795C12.4844 5.87888 12.5269 6.24871 12.6129 6.60953C10.6678 6.51834 8.76315 6.02215 7.0208 5.15269C5.27845 4.28323 3.73677 3.05965 2.4944 1.56024C2.05854 2.29501 1.82804 3.13337 1.82698 3.98769C1.82698 5.66247 2.70076 7.14287 4.02015 8.01017C3.23845 7.99161 2.47276 7.78472 1.7881 7.40704V7.46686C1.7881 9.80957 3.48282 11.7585 5.72584 12.2021C5.30405 12.3146 4.86939 12.3715 4.43287 12.3716C4.12312 12.3721 3.81408 12.3421 3.51024 12.2819C4.1338 14.2009 5.94865 15.5966 8.09846 15.6364C6.35158 16.9827 4.20688 17.7103 2.00143 17.705C1.60996 17.7044 1.21885 17.6811 0.830078 17.6352C3.07369 19.0679 5.6817 19.8257 8.34369 19.8184C17.3836 19.8184 22.3222 12.4563 22.3222 6.0712C22.3222 5.86185 22.3167 5.6525 22.3067 5.44814C23.2653 4.76629 24.0946 3.91896 24.7556 2.94593V2.94593Z" fill="#274C5B"/>
</svg>
