<svg width="25" height="20" viewBox="0 0 25 20" fill="none" xmlns="http://www.w3.org/2000/svg">
<path d="M24.7556 3.01063C23.8581 3.40059 22.9086 3.6575 21.9369 3.77325C22.958 3.1753 23.726 2.22535 24.0967 1.10157C23.1312 1.66611 22.0767 2.06221 20.9784 2.27292C20.5159 1.7882 19.9596 1.40258 19.3434 1.13952C18.7272 0.876461 18.064 0.741446 17.394 0.742684C14.6815 0.742684 12.4863 2.90595 12.4863 5.57265C12.4844 5.94358 12.5269 6.3134 12.6129 6.67422C10.6678 6.58304 8.76315 6.08684 7.0208 5.21738C5.27845 4.34793 3.73677 3.12435 2.4944 1.62494C2.05854 2.35971 1.82804 3.19806 1.82698 4.05238C1.82698 5.72717 2.70076 7.20756 4.02015 8.07486C3.23845 8.05631 2.47276 7.84942 1.7881 7.47174V7.53155C1.7881 9.87426 3.48282 11.8232 5.72584 12.2668C5.30405 12.3793 4.86939 12.4362 4.43287 12.4363C4.12312 12.4368 3.81408 12.4068 3.51024 12.3466C4.1338 14.2656 5.94865 15.6613 8.09846 15.7011C6.35158 17.0474 4.20688 17.775 2.00143 17.7697C1.60996 17.7691 1.21885 17.7458 0.830078 17.6999C3.07369 19.1326 5.6817 19.8904 8.34369 19.8831C17.3836 19.8831 22.3222 12.521 22.3222 6.1359C22.3222 5.92655 22.3167 5.7172 22.3067 5.51284C23.2653 4.83099 24.0946 3.98365 24.7556 3.01063V3.01063Z" fill="#274C5B"/>
</svg>
